<svg version="1.1" viewBox="0.0 0.0 960.0 288.0" fill="none" stroke="none" stroke-linecap="square" stroke-miterlimit="10" xmlns:xlink="http://www.w3.org/1999/xlink" xmlns="http://www.w3.org/2000/svg"><clipPath id="p.0"><path d="m0 0l960.0 0l0 288.0l-960.0 0l0 -288.0z" clip-rule="nonzero"/></clipPath><g clip-path="url(#p.0)"><path fill="#ffffff" d="m0 0l960.0 0l0 288.0l-960.0 0z" fill-rule="evenodd"/><path fill="#ff0000" d="m19.80459 4.208482l0 140.9839c0 7.591751 -0.16503716 12.7079315 -0.49511337 15.348541c-0.33007812 2.6406097 -1.5678635 4.868637 -3.7133608 6.6840515c-2.1454964 1.8154144 -5.0749254 2.7231293 -8.788284 2.7231293c-1.4028249 0 -3.6721003 -0.1237793 -6.8078265 -0.3713379l0 35.029358l26.117296 0c11.552673 0 20.189663 -0.88020325 25.911 -2.6406097c5.7488174 -1.7879181 10.287369 -4.992401 13.61565 -9.613464c3.3557663 -4.6210785 5.2399673 -9.792282 5.652565 -15.513596c0.41259003 -5.7488403 0.61888885 -18.649323 0.61888885 -38.70146l0 -133.92851z" fill-rule="evenodd"/><path fill="#ff0000" d="m193.34227 49.016357c2.6406097 33.337715 5.2812195 61.35296 7.921829 84.045715l-17.824127 0c1.3203125 -17.741615 4.6210785 -45.75685 9.902298 -84.045715zm-107.192314 114.74281l0 40.846954l37.752487 0l0 -40.846954zm67.335594 -159.55069l-26.48864 200.39764l53.96749 0l3.0944672 -36.019577l18.690582 0l2.59935 36.019577l53.348618 0l-29.830673 -200.39764zm108.18254 159.55069l0 40.846954l37.752502 0l0 -40.846954z" fill-rule="evenodd"/><path fill="#ff0000" d="m366.5086 38.49517c6.0238953 0 10.163605 0.99023056 12.419128 2.9706879c2.28302 1.9804573 3.4245605 6.1476746 3.4245605 12.501644l0 11.0163c0 8.829544 -1.1828003 14.055756 -3.5483398 15.678635c-2.3380432 1.5953674 -6.436493 2.3930511 -12.295349 2.3930511l0 -44.560318zm-52.11081 -34.28669l0 200.39764l52.11081 0l0 -90.35841c7.1791687 0 11.607697 1.2790451 13.2855835 3.8371353c1.7053833 2.5580978 2.5581055 9.200882 2.5581055 19.928368l0 66.59291l48.39746 0l0 -52.853485c0 -16.173737 -0.4401245 -26.048523 -1.3203125 -29.624352c-0.85269165 -3.6033325 -3.0532227 -7.550499 -6.601532 -11.841492c-3.5483398 -4.2910004 -10.479919 -7.715538 -20.79483 -10.273628c11.387634 -1.0727539 19.02066 -4.2910004 22.899078 -9.654739c3.8783875 -5.363739 5.8175964 -15.843666 5.8175964 -31.439781c0 -17.081455 -2.7506409 -29.514334 -8.251923 -37.298634c-5.473755 -7.8118114 -12.570404 -12.666684 -21.289917 -14.564623c-8.692017 -1.8979392 -25.333374 -2.846909 -49.924072 -2.846909z" fill-rule="evenodd"/><path fill="#ff0000" d="m444.98428 163.75917l0 40.846954l37.752502 0l0 -40.846954zm40.846954 -159.55069l30.078247 200.39764l79.09454 0l26.488647 -200.39764l-54.957764 0l-3.5895386 37.257378c-2.9707031 29.954437 -5.817627 64.19987 -8.5407715 102.73629c-2.7230835 -38.123833 -7.2616577 -84.78838 -13.615662 -139.99367zm138.63208 159.55069l0 40.846954l37.752502 0l0 -40.846954z" fill-rule="evenodd"/><path fill="#ff0000" d="m677.19305 4.208482l0 200.39764l52.11084 0l0 -200.39764z" fill-rule="evenodd"/><path fill="#ff0000" d="m744.28107 163.75917l0 40.846954l37.752502 0l0 -40.846954z" fill-rule="evenodd"/><path fill="#ff0000" d="m849.24536 7.3666283E-6c-12.377808 0 -22.940308 2.0079658 -31.687317 6.023895c-8.747009 3.9884224 -15.087219 9.530957 -19.02063 16.627602c-3.9058838 7.0966434 -5.8588867 18.319242 -5.8588867 33.667793c0 10.644966 1.3753662 19.39199 4.1259766 26.241074c2.7781372 6.8490906 6.2714233 12.21283 10.479919 16.091225c4.208496 3.8784027 12.790466 10.108597 25.745972 18.690582c12.955505 8.499466 21.083618 14.564621 24.3844 18.195465c3.2182617 3.630844 4.8273315 11.3463745 4.8273315 23.146606c0 5.363739 -0.85266113 9.407181 -2.5580444 12.13031c-1.6779175 2.7231293 -4.249756 4.0846863 -7.715576 4.0846863c-3.4657593 0 -5.8863525 -1.0727386 -7.2616577 -3.2182312c-1.3478394 -2.1455078 -2.0217285 -6.97287 -2.0217285 -14.482117l0 -24.384384l-48.39746 0l0 13.120529c0 15.018478 1.5266113 26.612411 4.579834 34.781815c3.0531616 8.169388 9.503418 14.894699 19.350708 20.175919c9.874756 5.2812195 21.785034 7.921829 35.730774 7.921829c12.707947 0 23.848022 -2.2830353 33.420227 -6.8490906c9.572205 -4.593567 16.02246 -10.273621 19.350769 -17.040192c3.355713 -6.766571 5.0336304 -17.28775 5.0336304 -31.563553c0 -19.639557 -3.011963 -33.8741 -9.035828 -42.703644c-6.023926 -8.829544 -20.62976 -20.134659 -43.817627 -33.91535c-8.086914 -4.78611 -12.996765 -8.870804 -14.729675 -12.254089c-1.8154297 -3.3832817 -2.7231445 -8.416946 -2.7231445 -15.100994c0 -5.198704 0.79766846 -9.077099 2.3930664 -11.635193c1.6228638 -2.558094 4.0021973 -3.8371391 7.1378784 -3.8371391c2.8881836 0 4.951172 0.9489708 6.188965 2.8469086c1.237793 1.8979416 1.8566895 6.3127136 1.8566895 13.244316l0 14.853439l48.39746 0l0 -7.921833c0 -15.926186 -1.5541382 -27.2038 -4.6623535 -33.832832c-3.0807495 -6.6565437 -9.393433 -12.171569 -18.93811 -16.545082c-9.517273 -4.3735127 -21.04242 -6.5602694 -34.57556 -6.5602694z" fill-rule="evenodd"/><path fill="#ff0000" d="m922.151 163.75917l0 40.846954l37.752502 0l0 -40.846954z" fill-rule="evenodd"/><path fill="#ff0000" d="m2.9688585 220.72304l0 21.144455c0 1.1385956 -0.024751663 1.905899 -0.07425475 2.301941c-0.049503088 0.3960266 -0.23513961 0.73017883 -0.5569098 1.0024567c-0.32176995 0.27226257 -0.76110995 0.4084015 -1.3180196 0.4084015c-0.21038818 0 -0.55072194 -0.018554688 -1.0210013 -0.05569458l0 5.2536316l3.916932 0c1.7326083 0 3.027955 -0.13201904 3.8859925 -0.39604187c0.862195 -0.2681427 1.5428629 -0.7487488 2.0420027 -1.441803c0.5032978 -0.6930542 0.78586197 -1.4686127 0.8477402 -2.3266907c0.061879158 -0.8621979 0.09281826 -2.7969818 0.09281826 -5.804352l0 -20.086304z" fill-rule="evenodd"/><path fill="#ff0000" d="m13.698653 220.72304l0 17.784363c0 3.3910217 0.061879158 5.6166534 0.18563652 6.6768646c0.123758316 1.0560913 0.52597046 2.060608 1.2066383 3.013565c0.6806669 0.9529419 1.7078562 1.7264557 3.0815668 2.3204956c1.3737106 0.5940552 2.9578094 0.89108276 4.7522964 0.89108276c1.6212273 0 3.027956 -0.24958801 4.2201385 -0.7487488c1.1963406 -0.5032959 2.1595726 -1.2396698 2.8897438 -2.2091217c0.7301712 -0.97358704 1.1695099 -1.9203491 1.3180199 -2.8403015c0.14850807 -0.92407227 0.22276306 -2.524704 0.22276306 -4.801895l0 -20.086304l-7.8153 0l0 22.146912c0 1.4974976 -0.07217598 2.4483795 -0.21657562 2.8526764c-0.14024353 0.40014648 -0.45790482 0.600235 -0.95293427 0.600235c-0.43315315 0 -0.72190475 -0.18151855 -0.8663044 -0.54455566c-0.14024353 -0.36715698 -0.21038818 -1.2066498 -0.21038818 -2.518509l0 -22.536758z" fill-rule="evenodd"/><path fill="#ff0000" d="m42.435196 220.09186c-1.8563652 0 -3.440464 0.30116272 -4.7522964 0.90345764c-1.3118286 0.59817505 -2.2626877 1.4294281 -2.8526154 2.4937744c-0.58576965 1.064331 -0.87867737 2.747467 -0.87867737 5.049408c0 1.5965118 0.20627594 2.908371 0.61878586 3.9355774c0.41666794 1.0272217 0.9405594 1.8316498 1.5717239 2.41333c0.63116455 0.5816803 1.9182472 1.5160675 3.8612404 2.8031769c1.942997 1.2747192 3.1620102 2.1843567 3.6570435 2.7289124c0.48265457 0.5445404 0.72397995 1.7017059 0.72397995 3.471466c0 0.80444336 -0.12786484 1.4108734 -0.38364792 1.8192902c-0.25162506 0.4084015 -0.637352 0.61260986 -1.157135 0.61260986c-0.519783 0 -0.8827896 -0.16088867 -1.0890656 -0.48266602c-0.20212173 -0.32177734 -0.3032074 -1.0457764 -0.3032074 -2.171997l0 -3.6571198l-7.2583923 0l0 1.9677887c0 2.2524414 0.22895432 3.991272 0.6868553 5.216507c0.45790482 1.2252197 1.425293 2.2338715 2.9021187 3.02594c1.4809837 0.7920532 3.2672043 1.1880951 5.3587112 1.1880951c1.9058685 0 3.5765991 -0.34240723 5.012188 -1.0272217c1.4355888 -0.68891907 2.402977 -1.540802 2.9021187 -2.5556488c0.5032959 -1.0148315 0.75492096 -2.5927734 0.75492096 -4.7338257c0 -2.9454956 -0.45171356 -5.080353 -1.3551483 -6.404587c-0.90343094 -1.3242493 -3.0939407 -3.0197601 -6.571533 -5.086548c-1.2128258 -0.7178192 -1.9491844 -1.3304291 -2.209076 -1.8378448c-0.2722664 -0.5074158 -0.4084015 -1.2623596 -0.4084015 -2.2648163c0 -0.7796936 0.11964798 -1.3613586 0.35889816 -1.7450256c0.2434082 -0.38365173 0.60022354 -0.5754852 1.0705032 -0.5754852c0.43315506 0 0.7425461 0.14233398 0.9281845 0.42697144c0.18563843 0.2846527 0.27845383 0.94677734 0.27845383 1.9863586l0 2.2276917l7.2583923 0l0 -1.1881104c0 -2.388565 -0.23306274 -4.079956 -0.6992302 -5.074173c-0.46201324 -0.99832153 -1.4087601 -1.8254547 -2.8402405 -2.4813843c-1.4273224 -0.65592957 -3.1558228 -0.983902 -5.1854515 -0.983902z" fill-rule="evenodd"/><path fill="#ff0000" d="m52.923664 220.72304l0 6.0147552l4.6223526 0l0 24.040436l7.815304 0l0 -24.040436l4.6409073 0l0 -6.0147552z" fill-rule="evenodd"/><path fill="#ff0000" d="m86.65383 227.44322c0.3960266 4.9999237 0.7920532 9.201584 1.1880798 12.60498l-2.673172 0c0.1980133 -2.660843 0.69304657 -6.862503 1.4850922 -12.60498zm-5.9774933 -6.7201843l-3.9726257 30.055191l8.093758 0l0.46408844 -5.4021454l2.8031158 0l0.38983154 5.4021454l8.000938 0l-4.473839 -30.055191z" fill-rule="evenodd"/><path fill="#ff0000" d="m97.79203 220.72304l0 30.055191l6.5344086 0l0 -13.663132l4.0654373 13.663132l6.849991 0l0 -30.055191l-6.5344086 0l0 13.533188l-4.3810196 -13.533188z" fill-rule="evenodd"/><path fill="#ff0000" d="m127.23399 225.1784c0.48265076 0 0.80029297 0.19595337 0.95292664 0.5878601c0.15675354 0.38778687 0.2351532 1.2809296 0.2351532 2.6794128l0 13.8116455c0 1.7697754 -0.07426453 2.8898163 -0.22276306 3.3600922c-0.1485138 0.47029114 -0.48885345 0.70544434 -1.0210114 0.70544434c-0.519783 0 -0.8518677 -0.20420837 -0.99624634 -0.61260986c-0.14026642 -0.40841675 -0.21038818 -1.4851379 -0.21038818 -3.2301483l0 -14.034424c0 -1.5469971 0.1072464 -2.4772644 0.3217697 -2.7907867c0.21862793 -0.31765747 0.5321579 -0.4764862 0.9405594 -0.4764862zm-0.037124634 -5.086548c-1.695488 0 -3.1805801 0.2784729 -4.455284 0.8353882c-1.274704 0.5569153 -2.2874603 1.3551788 -3.0382462 2.3947601c-0.7466812 1.0395813 -1.192215 2.1884918 -1.336586 3.4467316c-0.14026642 1.2541046 -0.21038818 3.3910217 -0.21038818 6.410782l0 5.142227c0 3.0940094 0.0742569 5.2598267 0.22276306 6.4974213c0.14850616 1.2376099 0.61260223 2.3823853 1.392273 3.4343567c0.77967834 1.0519562 1.8089218 1.8419647 3.0877533 2.369995c1.2829514 0.5239258 2.728859 0.7858887 4.337715 0.7858887c1.6954803 0 3.1805725 -0.27845764 4.4552765 -0.8353882c1.274704 -0.5569153 2.2853851 -1.3551788 3.0320587 -2.3947601c0.75079346 -1.0395813 1.1963196 -2.186432 1.3365936 -3.4405365c0.1443634 -1.2582245 0.216568 -3.3972168 0.216568 -6.416977l0 -5.142227c0 -3.0940094 -0.07424927 -5.2598114 -0.22276306 -6.4974213c-0.1485138 -1.2376099 -0.6125946 -2.3823853 -1.392273 -3.4343414c-0.77967834 -1.0519714 -1.8109894 -1.8399048 -3.0939484 -2.3638306c-1.2788391 -0.52804565 -2.7226715 -0.7920685 -4.3315125 -0.7920685z" fill-rule="evenodd"/><path fill="#ff0000" d="m137.81528 220.72304l0 6.0147552l4.622345 0l0 24.040436l7.8153076 0l0 -24.040436l4.640915 0l0 -6.0147552z" fill-rule="evenodd"/><path fill="#ff0000" d="m156.67595 220.72304l0 30.055191l7.8153076 0l0 -12.62355l2.3390198 0l0 12.62355l7.8153076 0l0 -30.055191l-7.8153076 0l0 10.748581l-2.3390198 0l0 -10.748581z" fill-rule="evenodd"/><path fill="#ff0000" d="m177.78284 220.72304l0 30.055191l13.551468 0l0 -6.0147552l-5.7361755 0l0 -6.608795l4.882248 0l0 -5.7177277l-4.882248 0l0 -5.6991577l5.2164 0l0 -6.0147552z" fill-rule="evenodd"/><path fill="#ff0000" d="m201.39581 225.86528c0.9034271 0 1.5242767 0.1485138 1.8625488 0.44554138c0.34239197 0.2970276 0.5135956 0.9220123 0.5135956 1.8749695l0 1.6521912c0 1.324234 -0.17739868 2.1080475 -0.53215027 2.3514557c-0.35066223 0.23925781 -0.9653168 0.35890198 -1.8439941 0.35890198l0 -6.6830597zm-7.8153076 -5.1422424l0 30.055191l7.8153076 0l0 -13.551758c1.0766907 0 1.7408447 0.1918335 1.9924927 0.5754852c0.25576782 0.383667 0.38365173 1.3799286 0.38365173 2.9888153l0 9.987457l7.2583923 0l0 -7.9268494c0 -2.425705 -0.06600952 -3.9066925 -0.1980133 -4.442993c-0.12788391 -0.54042053 -0.457901 -1.1324005 -0.9900665 -1.7759552c-0.53215027 -0.6435547 -1.5717163 -1.1571655 -3.1186829 -1.5408173c1.7078552 -0.16088867 2.8526154 -0.6435547 3.4342651 -1.447998c0.58166504 -0.80444336 0.87249756 -2.3762054 0.87249756 -4.715271c0 -2.5618286 -0.41253662 -4.426483 -1.2375793 -5.5939636c-0.8209381 -1.1716003 -1.8852539 -1.8997192 -3.1929474 -2.184372c-1.3035889 -0.28463745 -3.7993622 -0.42697144 -7.487335 -0.42697144z" fill-rule="evenodd"/><path fill="#ff0000" d="m228.57301 225.86528c0.9034271 0 1.5242615 0.1485138 1.8625488 0.44554138c0.34239197 0.2970276 0.5135956 0.9220123 0.5135956 1.8749695l0 1.6521912c0 1.324234 -0.17739868 2.1080475 -0.5321655 2.3514557c-0.35064697 0.23925781 -0.9653015 0.35890198 -1.8439789 0.35890198l0 -6.6830597zm-7.8153076 -5.1422424l0 30.055191l7.8153076 0l0 -13.551758c1.0766907 0 1.7408447 0.1918335 1.9924927 0.5754852c0.25575256 0.383667 0.38365173 1.3799286 0.38365173 2.9888153l0 9.987457l7.2583923 0l0 -7.9268494c0 -2.425705 -0.06600952 -3.9066925 -0.1980133 -4.442993c-0.12789917 -0.54042053 -0.457901 -1.1324005 -0.9900665 -1.7759552c-0.53215027 -0.6435547 -1.5717163 -1.1571655 -3.1186981 -1.5408173c1.7078552 -0.16088867 2.8526154 -0.6435547 3.4342804 -1.447998c0.58166504 -0.80444336 0.87249756 -2.3762054 0.87249756 -4.715271c0 -2.5618286 -0.41253662 -4.426483 -1.2375793 -5.5939636c-0.8209381 -1.1716003 -1.8852539 -1.8997192 -3.1929474 -2.184372c-1.3035889 -0.28463745 -3.7993622 -0.42697144 -7.4873505 -0.42697144z" fill-rule="evenodd"/><path fill="#ff0000" d="m241.23343 220.72304l0 30.055191l13.551468 0l0 -6.0147552l-5.7361755 0l0 -6.608795l4.882248 0l0 -5.7177277l-4.882248 0l0 -5.6991577l5.216385 0l0 -6.0147552z" fill-rule="evenodd"/><path fill="#ff0000" d="m257.0311 220.72304l0 30.055191l6.831421 0l0 -19.8264l2.8773804 19.8264l4.845093 0l2.7288818 -20.290497l0 20.290497l6.831421 0l0 -30.055191l-10.191467 0l-1.7821045 14.034424l-1.0766907 -7.6483917c-0.33413696 -2.4504547 -0.64971924 -4.579132 -0.9467468 -6.386032z" fill-rule="evenodd"/><path fill="#ff0000" d="m292.45056 227.44322c0.3960266 4.9999237 0.7920532 9.201584 1.1880798 12.60498l-2.6731873 0c0.19802856 -2.660843 0.6930542 -6.862503 1.4851074 -12.60498zm-5.9775085 -6.7201843l-3.9726257 30.055191l8.0937805 0l0.4640808 -5.4021454l2.8031006 0l0.38983154 5.4021454l8.000946 0l-4.4738464 -30.055191z" fill-rule="evenodd"/><path fill="#ff0000" d="m311.40405 225.86528c0.9034424 0 1.524292 0.1485138 1.8625488 0.44554138c0.34240723 0.2970276 0.51361084 0.9220123 0.51361084 1.8749695l0 1.6521912c0 1.324234 -0.17739868 2.1080475 -0.5321655 2.3514557c-0.35064697 0.23925781 -0.9653015 0.35890198 -1.8439941 0.35890198l0 -6.6830597zm-7.8153076 -5.1422424l0 30.055191l7.8153076 0l0 -13.551758c1.0766907 0 1.7408752 0.1918335 1.9924927 0.5754852c0.25576782 0.383667 0.383667 1.3799286 0.383667 2.9888153l0 9.987457l7.2583923 0l0 -7.9268494c0 -2.425705 -0.06600952 -3.9066925 -0.19802856 -4.442993c-0.12786865 -0.54042053 -0.45788574 -1.1324005 -0.99005127 -1.7759552c-0.5321655 -0.6435547 -1.5717163 -1.1571655 -3.1187134 -1.5408173c1.7078552 -0.16088867 2.8526306 -0.6435547 3.4342957 -1.447998c0.58166504 -0.80444336 0.87249756 -2.3762054 0.87249756 -4.715271c0 -2.5618286 -0.41253662 -4.426483 -1.2375793 -5.5939636c-0.82092285 -1.1716003 -1.8852539 -1.8997192 -3.1929626 -2.184372c-1.3035583 -0.28463745 -3.799347 -0.42697144 -7.487335 -0.42697144z" fill-rule="evenodd"/><path fill="#ff0000" d="m352.63394 227.44322c0.3960266 4.9999237 0.7920532 9.201584 1.1880798 12.60498l-2.6731873 0c0.19802856 -2.660843 0.6930542 -6.862503 1.4851074 -12.60498zm-28.569458 -6.7201843l0 30.055191l7.815277 0l0 -12.883453l3.1558228 12.883453l15.742004 0l0.4640808 -5.4021454l2.8031006 0l0.38986206 5.4021454l8.000916 0l-4.4738464 -30.055191l-11.305267 0l-3.841217 29.06102l-4.6052246 -15.490707l4.473816 -13.5703125l-7.3326416 0l-3.471405 11.676788l0 -11.676788z" fill-rule="evenodd"/><path fill="#ff0000" d="m371.58743 225.86528c0.80444336 0.012374878 1.3448486 0.06806946 1.6212158 0.16708374c0.2805481 0.09899902 0.5074158 0.3382721 0.6806946 0.71780396c0.17324829 0.375412 0.2598877 1.0334015 0.2598877 1.9739685c0 1.7821503 -0.10519409 2.8629913 -0.31558228 3.2425232c-0.21038818 0.375412 -0.69924927 0.56311035 -1.4665527 0.56311035c-0.18560791 0 -0.44552612 0.0061950684 -0.7796631 0.018569946l0 -6.6830597zm0 11.361191c1.1633301 0.037139893 1.881134 0.1918335 2.1533813 0.46411133c0.27227783 0.27226257 0.40841675 1.0519562 0.40841675 2.3390656l0 2.8031616c0 1.2128601 -0.15264893 1.9739838 -0.45791626 2.2833862c-0.30114746 0.30940247 -1.0024414 0.48266602 -2.1038818 0.51979065l0 -8.409515zm-7.8153076 -16.503433l0 30.055191l9.040527 0c3.1434326 0 5.2225647 -0.17945862 6.2373657 -0.5383606c1.0148315 -0.35890198 1.7532349 -1.0272064 2.215271 -2.0049133c0.466156 -0.9777069 0.69921875 -2.4813995 0.69921875 -4.5110626l0 -2.784607c0 -1.9554138 -0.32174683 -3.4054718 -0.9653015 -4.350174c-0.64352417 -0.9488373 -1.8687439 -1.6274567 -3.6755981 -2.0358582c1.6212158 -0.37127686 2.7061768 -0.90345764 3.2548218 -1.5965118c0.5527954 -0.6930542 0.8291931 -1.9182739 0.8291931 -3.6756744c0 -2.5989685 -0.38986206 -4.482193 -1.1695251 -5.649658c-0.7796631 -1.1716003 -1.804779 -1.9492188 -3.0753784 -2.3328857c-1.266449 -0.38365173 -3.131073 -0.5754852 -5.5938416 -0.5754852z" fill-rule="evenodd"/><path fill="#ff0000" d="m384.76764 220.72304l0 30.055191l12.567596 0l0 -6.0147552l-4.752289 0l0 -24.040436z" fill-rule="evenodd"/><path fill="#ff0000" d="m399.22873 220.72304l0 30.055191l13.551453 0l0 -6.0147552l-5.736145 0l0 -6.608795l4.8822327 0l0 -5.7177277l-4.8822327 0l0 -5.6991577l5.2163696 0l0 -6.0147552z" fill-rule="evenodd"/><path fill="#ff0000" d="m419.94577 220.72304l4.510956 30.055191l11.862183 0l3.9726257 -30.055191l-8.242249 0l-0.5383606 5.587784c-0.44552612 4.4924927 -0.87249756 9.62854 -1.2808838 15.408157c-0.40841675 -5.7177277 -1.0890808 -12.71637 -2.0419922 -20.995941z" fill-rule="evenodd"/><path fill="#ff0000" d="m441.6281 220.72304l0 30.055191l7.8153076 0l0 -30.055191z" fill-rule="evenodd"/><path fill="#ff0000" d="m460.41455 220.09186c-1.8563843 0 -3.4404602 0.30116272 -4.752289 0.90345764c-1.3118591 0.59817505 -2.2627258 1.4294281 -2.8526306 2.4937744c-0.5857849 1.064331 -0.8786621 2.747467 -0.8786621 5.049408c0 1.5965118 0.2062378 2.908371 0.6187744 3.9355774c0.4166565 1.0272217 0.94055176 1.8316498 1.5717163 2.41333c0.63116455 0.5816803 1.9182434 1.5160675 3.8612366 2.8031769c1.9429932 1.2747192 3.1620178 2.1843567 3.6570435 2.7289124c0.48266602 0.5445404 0.723999 1.7017059 0.723999 3.471466c0 0.80444336 -0.12789917 1.4108734 -0.383667 1.8192902c-0.25161743 0.4084015 -0.6373291 0.61260986 -1.157135 0.61260986c-0.5197754 0 -0.882782 -0.16088867 -1.0890503 -0.48266602c-0.20214844 -0.32177734 -0.30322266 -1.0457764 -0.30322266 -2.171997l0 -3.6571198l-7.2583923 0l0 1.9677887c0 2.2524414 0.22897339 3.991272 0.68685913 5.216507c0.45791626 1.2252197 1.425293 2.2338715 2.9021301 3.02594c1.480957 0.7920532 3.267212 1.1880951 5.3587036 1.1880951c1.9058838 0 3.5765991 -0.34240723 5.0121765 -1.0272217c1.4356079 -0.68891907 2.4029846 -1.540802 2.9021301 -2.5556488c0.5032959 -1.0148315 0.75491333 -2.5927734 0.75491333 -4.7338257c0 -2.9454956 -0.4517212 -5.080353 -1.355133 -6.404587c-0.9034424 -1.3242493 -3.093933 -3.0197601 -6.571533 -5.086548c-1.2128296 -0.7178192 -1.9491882 -1.3304291 -2.209076 -1.8378448c-0.27227783 -0.5074158 -0.40841675 -1.2623596 -0.40841675 -2.2648163c0 -0.7796936 0.119628906 -1.3613586 0.35891724 -1.7450256c0.24337769 -0.38365173 0.6002197 -0.5754852 1.0704956 -0.5754852c0.433136 0 0.7425537 0.14233398 0.92819214 0.42697144c0.18563843 0.2846527 0.27844238 0.94677734 0.27844238 1.9863586l0 2.2276917l7.2583923 0l0 -1.1881104c0 -2.388565 -0.23306274 -4.079956 -0.69921875 -5.074173c-0.46203613 -0.99832153 -1.408783 -1.8254547 -2.8402405 -2.4813843c-1.4273376 -0.65592957 -3.1558228 -0.983902 -5.1854553 -0.983902z" fill-rule="evenodd"/><path fill="#ff0000" d="m472.1282 220.72304l0 17.784363c0 3.3910217 0.06188965 5.6166534 0.18563843 6.6768646c0.1237793 1.0560913 0.52597046 2.060608 1.2066345 3.013565c0.6806946 0.9529419 1.7078552 1.7264557 3.0815735 2.3204956c1.3737183 0.5940552 2.9578247 0.89108276 4.752289 0.89108276c1.6212463 0 3.027954 -0.24958801 4.220154 -0.7487488c1.1963196 -0.5032959 2.1595764 -1.2396698 2.88974 -2.2091217c0.7301636 -0.97358704 1.1695251 -1.9203491 1.3180237 -2.8403015c0.14849854 -0.92407227 0.2227478 -2.524704 0.2227478 -4.801895l0 -20.086304l-7.815277 0l0 22.146912c0 1.4974976 -0.07220459 2.4483795 -0.21658325 2.8526764c-0.14025879 0.40014648 -0.45791626 0.600235 -0.9529419 0.600235c-0.433136 0 -0.7219238 -0.18151855 -0.8663025 -0.54455566c-0.14025879 -0.36715698 -0.21038818 -1.2066498 -0.21038818 -2.518509l0 -22.536758z" fill-rule="evenodd"/><path fill="#ff0000" d="m501.1989 227.44322c0.3960266 4.9999237 0.7920532 9.201584 1.1880798 12.60498l-2.6731873 0c0.19802856 -2.660843 0.6930542 -6.862503 1.4851074 -12.60498zm-5.9775085 -6.7201843l-3.9726257 30.055191l8.09375 0l0.46411133 -5.4021454l2.8031006 0l0.38983154 5.4021454l8.000946 0l-4.4738464 -30.055191z" fill-rule="evenodd"/><path fill="#ff0000" d="m512.3371 220.72304l0 30.055191l12.567627 0l0 -6.0147552l-4.7523193 0l0 -24.040436z" fill-rule="evenodd"/><path fill="#ff0000" d="m526.7982 220.72304l0 30.055191l7.8152466 0l0 -30.055191z" fill-rule="evenodd"/><path fill="#ff0000" d="m561.011 227.44322c0.39605713 4.9999237 0.7920532 9.201584 1.1881104 12.60498l-2.6731567 0c0.19799805 -2.660843 0.6930542 -6.862503 1.4850464 -12.60498zm-23.891418 -6.7201843l0 6.0147552l5.309204 0l-6.0145874 19.677887l0 4.362549l14.4053955 0l0 -6.0147552l-5.8289795 0l5.8289795 -18.02568l0 -6.0147552zm17.91394 0l-3.9725952 30.055191l8.09375 0l0.4640503 -5.4021454l2.8031616 0l0.38983154 5.4021454l8.000916 0l-4.473816 -30.055191zm15.779114 0l0 6.0147552l4.6223755 0l0 24.040436l7.8153076 0l0 -24.040436l4.640869 0l0 -6.0147552z" fill-rule="evenodd"/><path fill="#ff0000" d="m589.6733 220.72304l0 30.055191l7.8153076 0l0 -30.055191z" fill-rule="evenodd"/><path fill="#ff0000" d="m609.4807 225.1784c0.48266602 0 0.80029297 0.19595337 0.9529419 0.5878601c0.15679932 0.38778687 0.23516846 1.2809296 0.23516846 2.6794128l0 13.8116455c0 1.7697754 -0.074279785 2.8898163 -0.22277832 3.3600922c-0.14849854 0.47029114 -0.48883057 0.70544434 -1.0209961 0.70544434c-0.5197754 0 -0.8518677 -0.20420837 -0.99627686 -0.61260986c-0.14025879 -0.40841675 -0.21038818 -1.4851379 -0.21038818 -3.2301483l0 -14.034424c0 -1.5469971 0.107299805 -2.4772644 0.32177734 -2.7907867c0.21862793 -0.31765747 0.5321655 -0.4764862 0.94055176 -0.4764862zm-0.037109375 -5.086548c-1.6954956 0 -3.180603 0.2784729 -4.455261 0.8353882c-1.2747192 0.5569153 -2.2874756 1.3551788 -3.038269 2.3947601c-0.74664307 1.0395813 -1.1921997 2.1884918 -1.3366089 3.4467316c-0.14025879 1.2541046 -0.21038818 3.3910217 -0.21038818 6.410782l0 5.142227c0 3.0940094 0.074279785 5.2598267 0.22277832 6.4974213c0.14849854 1.2376099 0.61260986 2.3823853 1.392273 3.4343567c0.7796631 1.0519562 1.80896 1.8419647 3.0877686 2.369995c1.282959 0.5239258 2.7288818 0.7858887 4.3377075 0.7858887c1.6954956 0 3.180542 -0.27845764 4.455261 -0.8353882c1.2747192 -0.5569153 2.2854004 -1.3551788 3.0321045 -2.3947601c0.75079346 -1.0395813 1.1962891 -2.186432 1.3365479 -3.4405365c0.14440918 -1.2582245 0.21661377 -3.3972168 0.21661377 -6.416977l0 -5.142227c0 -3.0940094 -0.074279785 -5.2598114 -0.22277832 -6.4974213c-0.14849854 -1.2376099 -0.61260986 -2.3823853 -1.392273 -3.4343414c-0.7796631 -1.0519714 -1.8109741 -1.8399048 -3.093933 -2.3638306c-1.2788696 -0.52804565 -2.7227173 -0.7920685 -4.331543 -0.7920685z" fill-rule="evenodd"/><path fill="#ff0000" d="m621.3986 220.72304l0 30.055191l6.534363 0l0 -13.663132l4.0654907 13.663132l6.8499756 0l0 -30.055191l-6.534424 0l0 13.533188l-4.3810425 -13.533188z" fill-rule="evenodd"/><path fill="#ff0000" d="m648.6872 220.72304l0 30.055191l7.8153076 0l0 -30.055191z" fill-rule="evenodd"/><path fill="#ff0000" d="m659.6397 220.72304l0 30.055191l6.534424 0l0 -13.663132l4.0654297 13.663132l6.8500366 0l0 -30.055191l-6.534424 0l0 13.533188l-4.3810425 -13.533188z" fill-rule="evenodd"/><path fill="#ff0000" d="m678.89026 220.72304l0 6.0147552l4.6223145 0l0 24.040436l7.8153076 0l0 -24.040436l4.64093 0l0 -6.0147552z" fill-rule="evenodd"/><path fill="#ff0000" d="m697.7509 220.72304l0 30.055191l13.551514 0l0 -6.0147552l-5.736206 0l0 -6.608795l4.882263 0l0 -5.7177277l-4.882263 0l0 -5.6991577l5.2163696 0l0 -6.0147552z" fill-rule="evenodd"/><path fill="#ff0000" d="m721.3639 225.86528c0.9034424 0 1.524292 0.1485138 1.8625488 0.44554138c0.34240723 0.2970276 0.51361084 0.9220123 0.51361084 1.8749695l0 1.6521912c0 1.324234 -0.17736816 2.1080475 -0.5321655 2.3514557c-0.35064697 0.23925781 -0.96533203 0.35890198 -1.8439941 0.35890198l0 -6.6830597zm-7.8153076 -5.1422424l0 30.055191l7.8153076 0l0 -13.551758c1.0767212 0 1.7408447 0.1918335 1.9924927 0.5754852c0.25579834 0.383667 0.383667 1.3799286 0.383667 2.9888153l0 9.987457l7.258362 0l0 -7.9268494c0 -2.425705 -0.065979004 -3.9066925 -0.19799805 -4.442993c-0.12786865 -0.54042053 -0.45788574 -1.1324005 -0.99005127 -1.7759552c-0.5321655 -0.6435547 -1.5717163 -1.1571655 -3.1187134 -1.5408173c1.7078857 -0.16088867 2.8526611 -0.6435547 3.4343262 -1.447998c0.581604 -0.80444336 0.8724365 -2.3762054 0.8724365 -4.715271c0 -2.5618286 -0.4124756 -4.426483 -1.2375488 -5.5939636c-0.82092285 -1.1716003 -1.8852539 -1.8997192 -3.1929321 -2.184372c-1.3035889 -0.28463745 -3.7993774 -0.42697144 -7.4873657 -0.42697144z" fill-rule="evenodd"/><path fill="#ff0000" d="m742.1923 227.44322c0.39605713 4.9999237 0.7920532 9.201584 1.1881104 12.60498l-2.6732178 0c0.19805908 -2.660843 0.6930542 -6.862503 1.4851074 -12.60498zm-5.977478 -6.7201843l-3.9726562 30.055191l8.09375 0l0.46411133 -5.4021454l2.8031006 0l0.38983154 5.4021454l8.000977 0l-4.473877 -30.055191z" fill-rule="evenodd"/><path fill="#ff0000" d="m762.22253 220.09186c-1.6954956 0 -3.1970825 0.28877258 -4.504822 0.866333c-1.3035889 0.57341003 -2.324585 1.3613586 -3.0629883 2.3638153c-0.73431396 1.0024567 -1.1757202 2.046173 -1.3242188 3.131134c-0.14849854 1.0808411 -0.22271729 2.7041626 -0.22271729 4.8699646l0 8.780792c0 2.9454956 0.24127197 5.1525574 0.723938 6.6211853c0.48266602 1.4644928 1.4665527 2.6113434 2.9516602 3.4405365c1.4850464 0.8291931 3.3723755 1.2437897 5.661865 1.2437897c2.202942 0 4.055176 -0.48886108 5.5567627 -1.466568c1.5056763 -0.9777069 2.4771729 -2.1163025 2.9144897 -3.4157867c0.44140625 -1.299469 0.6621094 -3.502411 0.6621094 -6.608795l0 -1.1695251l-7.8153076 0l0 3.7684937c0 1.6460114 -0.09075928 2.6917877 -0.27227783 3.137329c-0.17736816 0.44552612 -0.55688477 0.66830444 -1.1385498 0.66830444c-0.6064453 0 -0.99627686 -0.22277832 -1.1695557 -0.66830444c-0.17321777 -0.44554138 -0.2598877 -1.3984985 -0.2598877 -2.8588715l0 -13.960159c0 -1.5222473 0.08666992 -2.512329 0.2598877 -2.9702454c0.17327881 -0.45791626 0.58166504 -0.6868744 1.2252197 -0.6868744c0.5692749 0 0.9364624 0.18977356 1.1014404 0.5693054c0.16912842 0.37539673 0.25372314 1.324234 0.25372314 2.8464813l0 5.2350616l7.8153076 0l0 -2.8588562c0 -2.8093567 -0.23516846 -4.8782196 -0.70544434 -6.2065887c-0.47027588 -1.3324738 -1.4541626 -2.4442596 -2.9515991 -3.3353424c-1.4974976 -0.8910675 -3.3971558 -1.3366089 -5.6990356 -1.3366089z" fill-rule="evenodd"/><path fill="#ff0000" d="m773.0451 220.72304l0 6.0147552l4.6223755 0l0 24.040436l7.8153076 0l0 -24.040436l4.64093 0l0 -6.0147552z" fill-rule="evenodd"/><path fill="#ff0000" d="m791.9058 220.72304l0 30.055191l7.8153076 0l0 -30.055191z" fill-rule="evenodd"/><path fill="#ff0000" d="m801.07623 220.72304l4.5109863 30.055191l11.862183 0l3.9725952 -30.055191l-8.242249 0l-0.5383301 5.587784c-0.44555664 4.4924927 -0.87249756 9.62854 -1.2808838 15.408157c-0.40838623 -5.7177277 -1.0891113 -12.71637 -2.0419922 -20.995941z" fill-rule="evenodd"/><path fill="#ff0000" d="m822.7586 220.72304l0 30.055191l13.551453 0l0 -6.0147552l-5.736145 0l0 -6.608795l4.882263 0l0 -5.7177277l-4.882263 0l0 -5.6991577l5.2163696 0l0 -6.0147552z" fill-rule="evenodd"/><path fill="#ff0000" d="m853.0916 220.09186c-1.8563232 0 -3.4404297 0.30116272 -4.7522583 0.90345764c-1.3118286 0.59817505 -2.2627563 1.4294281 -2.8526611 2.4937744c-0.5857544 1.064331 -0.8786621 2.747467 -0.8786621 5.049408c0 1.5965118 0.2062378 2.908371 0.6187744 3.9355774c0.416687 1.0272217 0.94055176 1.8316498 1.5717163 2.41333c0.63116455 0.5816803 1.9182739 1.5160675 3.861267 2.8031769c1.9429932 1.2747192 3.1619873 2.1843567 3.6570435 2.7289124c0.48266602 0.5445404 0.723999 1.7017059 0.723999 3.471466c0 0.80444336 -0.12792969 1.4108734 -0.383667 1.8192902c-0.25164795 0.4084015 -0.6373291 0.61260986 -1.1571655 0.61260986c-0.5197754 0 -0.8828125 -0.16088867 -1.0890503 -0.48266602c-0.20214844 -0.32177734 -0.30322266 -1.0457764 -0.30322266 -2.171997l0 -3.6571198l-7.258362 0l0 1.9677887c0 2.2524414 0.22894287 3.991272 0.6868286 5.216507c0.45794678 1.2252197 1.425293 2.2338715 2.9021606 3.02594c1.480957 0.7920532 3.267212 1.1880951 5.3587036 1.1880951c1.9058838 0 3.5765991 -0.34240723 5.012146 -1.0272217c1.4356079 -0.68891907 2.4030151 -1.540802 2.9021606 -2.5556488c0.50323486 -1.0148315 0.7548828 -2.5927734 0.7548828 -4.7338257c0 -2.9454956 -0.45166016 -5.080353 -1.3551025 -6.404587c-0.9034424 -1.3242493 -3.093933 -3.0197601 -6.571533 -5.086548c-1.2128296 -0.7178192 -1.9492188 -1.3304291 -2.2091064 -1.8378448c-0.27227783 -0.5074158 -0.40838623 -1.2623596 -0.40838623 -2.2648163c0 -0.7796936 0.119628906 -1.3613586 0.35888672 -1.7450256c0.2434082 -0.38365173 0.6002197 -0.5754852 1.0704956 -0.5754852c0.4331665 0 0.7425537 0.14233398 0.92822266 0.42697144c0.18560791 0.2846527 0.27844238 0.94677734 0.27844238 1.9863586l0 2.2276917l7.258362 0l0 -1.1881104c0 -2.388565 -0.23309326 -4.079956 -0.69921875 -5.074173c-0.46203613 -0.99832153 -1.4087524 -1.8254547 -2.84021 -2.4813843c-1.4273682 -0.65592957 -3.1558228 -0.983902 -5.185486 -0.983902z" fill-rule="evenodd"/><path fill="#ff0000" d="m863.1346 220.72304l5.494812 19.176666l0 10.878525l7.239868 0l0 -10.878525l5.6990356 -19.176666l-7.184143 0c-1.0148315 4.6781464 -1.7388306 8.619904 -2.171936 11.825302c-0.13616943 -2.0296783 -0.767334 -5.9714355 -1.8934937 -11.825302z" fill-rule="evenodd"/><path fill="#ff0000" d="m890.7387 220.09186c-1.8563232 0 -3.4404297 0.30116272 -4.7522583 0.90345764c-1.3118286 0.59817505 -2.2627563 1.4294281 -2.8526611 2.4937744c-0.5857544 1.064331 -0.8786621 2.747467 -0.8786621 5.049408c0 1.5965118 0.2062378 2.908371 0.6187744 3.9355774c0.416687 1.0272217 0.94055176 1.8316498 1.5717163 2.41333c0.63116455 0.5816803 1.9182739 1.5160675 3.861267 2.8031769c1.9429932 1.2747192 3.1619873 2.1843567 3.6570435 2.7289124c0.48266602 0.5445404 0.723999 1.7017059 0.723999 3.471466c0 0.80444336 -0.12786865 1.4108734 -0.383667 1.8192902c-0.25164795 0.4084015 -0.6373291 0.61260986 -1.1571045 0.61260986c-0.5198364 0 -0.8828125 -0.16088867 -1.0891113 -0.48266602c-0.2020874 -0.32177734 -0.30316162 -1.0457764 -0.30316162 -2.171997l0 -3.6571198l-7.258423 0l0 1.9677887c0 2.2524414 0.22894287 3.991272 0.6868286 5.216507c0.45794678 1.2252197 1.425293 2.2338715 2.9021606 3.02594c1.480957 0.7920532 3.267212 1.1880951 5.3587036 1.1880951c1.9058838 0 3.5765991 -0.34240723 5.012207 -1.0272217c1.4355469 -0.68891907 2.402954 -1.540802 2.9020996 -2.5556488c0.5032959 -1.0148315 0.75494385 -2.5927734 0.75494385 -4.7338257c0 -2.9454956 -0.4517212 -5.080353 -1.3551636 -6.404587c-0.9034424 -1.3242493 -3.093933 -3.0197601 -6.571533 -5.086548c-1.2128296 -0.7178192 -1.9492188 -1.3304291 -2.2091064 -1.8378448c-0.27227783 -0.5074158 -0.40838623 -1.2623596 -0.40838623 -2.2648163c0 -0.7796936 0.119628906 -1.3613586 0.35888672 -1.7450256c0.2434082 -0.38365173 0.6002197 -0.5754852 1.0704956 -0.5754852c0.4331665 0 0.7425537 0.14233398 0.92822266 0.42697144c0.18560791 0.2846527 0.27844238 0.94677734 0.27844238 1.9863586l0 2.2276917l7.258362 0l0 -1.1881104c0 -2.388565 -0.23303223 -4.079956 -0.69921875 -5.074173c-0.4619751 -0.99832153 -1.4087524 -1.8254547 -2.84021 -2.4813843c-1.4273682 -0.65592957 -3.1558228 -0.983902 -5.185486 -0.983902z" fill-rule="evenodd"/><path fill="#ff0000" d="m901.2272 220.72304l0 6.0147552l4.6223755 0l0 24.040436l7.8153076 0l0 -24.040436l4.64093 0l0 -6.0147552z" fill-rule="evenodd"/><path fill="#ff0000" d="m920.0879 220.72304l0 30.055191l13.551453 0l0 -6.0147552l-5.736145 0l0 -6.608795l4.882202 0l0 -5.7177277l-4.882202 0l0 -5.6991577l5.2163696 0l0 -6.0147552z" fill-rule="evenodd"/><path fill="#ff0000" d="m935.88556 220.72304l0 30.055191l6.831421 0l0 -19.8264l2.8773804 19.8264l4.845093 0l2.7288818 -20.290497l0 20.290497l6.831421 0l0 -30.055191l-10.191467 0l-1.7821045 14.034424l-1.0767212 -7.6483917c-0.33410645 -2.4504547 -0.64971924 -4.579132 -0.9467163 -6.386032z" fill-rule="evenodd"/></g></svg>