<svg version="1.1" viewBox="0.0 0.0 960.0 288.0" fill="none" stroke="none" stroke-linecap="square" stroke-miterlimit="10" xmlns:xlink="http://www.w3.org/1999/xlink" xmlns="http://www.w3.org/2000/svg"><clipPath id="p.0"><path d="m0 0l960.0 0l0 288.0l-960.0 0l0 -288.0z" clip-rule="nonzero"/></clipPath><g clip-path="url(#p.0)"><path fill="#ffffff" d="m0 0l960.0 0l0 288.0l-960.0 0z" fill-rule="evenodd"/><path fill="#ff0000" d="m135.10374 68.87976l0 105.66121c0 5.6896973 -0.123687744 9.524048 -0.37106323 11.503067c-0.24737549 1.9790192 -1.1750488 3.648819 -2.7830048 5.0093994c-1.6079559 1.3605804 -3.803421 2.040863 -6.586426 2.040863c-1.0513535 0 -2.7520752 -0.09275818 -5.102165 -0.27830505l0 26.252975l19.573769 0c8.658218 0 15.131256 -0.6596832 19.419144 -1.9790344c4.308487 -1.3399658 7.7099304 -3.7415771 10.20433 -7.2048645c2.5149994 -3.4632874 3.927124 -7.3388824 4.2363434 -11.626755c0.30921936 -4.308502 0.46383667 -13.976852 0.46383667 -29.00505l0 -100.373505z" fill-rule="evenodd"/><path fill="#ff0000" d="m265.1626 102.46129c1.9790039 24.985146 3.9580383 45.98134 5.937042 62.988556l-13.358368 0c0.98950195 -13.296555 3.4632874 -34.29274 7.4213257 -62.988556zm-80.33592 85.994675l0 30.613007l28.293823 0l0 -30.613007zm50.465057 -119.5762l-19.852066 150.18921l40.44626 0l2.3191528 -26.995102l14.007782 0l1.9480896 26.995102l39.98242 0l-22.35675 -150.18921zm81.07805 119.5762l0 30.613007l28.293823 0l0 -30.613007z" fill-rule="evenodd"/><path fill="#ff0000" d="m394.9431 94.57612c4.5146484 0 7.6171875 0.7421341 9.307587 2.2264023c1.711029 1.4842682 2.5665588 4.6074066 2.5665588 9.369431l0 8.256233c0 6.6173553 -0.8864441 10.534172 -2.6593018 11.7504425c-1.7522583 1.1956635 -4.823883 1.7934875 -9.214844 1.7934875l0 -33.395996zm-39.05475 -25.696358l0 150.18921l39.05475 0l0 -67.719666c5.380493 0 8.699463 0.95858765 9.95697 2.8757782c1.2781067 1.9171753 1.9171753 6.895645 1.9171753 14.935425l0 49.908463l36.27176 0l0 -39.61136c0 -12.121521 -0.32983398 -19.522232 -0.98950195 -22.202164c-0.6390686 -2.700531 -2.2882385 -5.6587524 -4.947571 -8.874664c-2.6593018 -3.2159119 -7.854248 -5.7824554 -15.584778 -7.6996307c8.534515 -0.8039856 14.255127 -3.2159119 17.161804 -7.2358093c2.9067078 -4.019882 4.3600464 -11.87413 4.3600464 -23.562721c0 -12.801804 -2.061493 -22.119698 -6.1844482 -27.95369c-4.102356 -5.8546066 -9.420959 -9.493118 -15.955872 -10.915543c-6.514282 -1.4224167 -18.986237 -2.1336288 -37.415863 -2.1336288z" fill-rule="evenodd"/><path fill="#ff0000" d="m453.75717 188.45596l0 30.613007l28.293854 0l0 -30.613007zm30.613007 -119.5762l22.542297 150.18921l59.277893 0l19.85205 -150.18921l-41.188416 0l-2.6901855 27.92276c-2.2264404 22.449532 -4.3600464 48.114975 -6.40094 76.99632c-2.0408325 -28.572128 -5.4422607 -63.54516 -10.204285 -104.91908zm103.89862 119.5762l0 30.613007l28.293823 0l0 -30.613007z" fill-rule="evenodd"/><path fill="#ff0000" d="m627.7874 68.87976l0 150.18921l39.05475 0l0 -150.18921z" fill-rule="evenodd"/><path fill="#ff0000" d="m678.06696 188.45596l0 30.613007l28.293823 0l0 -30.613007z" fill-rule="evenodd"/><path fill="#ff0000" d="m756.73303 65.72569c-9.276611 0 -17.192749 1.5048828 -23.74823 4.5146484c-6.555542 2.9891434 -11.307251 7.1430283 -14.255127 12.461647c-2.9273071 5.3186264 -4.390991 13.729469 -4.390991 25.232529c0 7.977936 1.0307617 14.53344 3.0922241 19.666534c2.0820923 5.1330795 4.7001953 9.152977 7.854248 12.059654c3.1540527 2.9066925 9.585876 7.575943 19.295471 14.007767c9.709595 6.36998 15.80127 10.915543 18.275024 13.6367035c2.4119263 2.7211456 3.61792 8.503601 3.61792 17.347366c0 4.019882 -0.6390991 7.0502625 -1.9171753 9.0911255c-1.2575073 2.040863 -3.1849976 3.0612946 -5.7824707 3.0612946c-2.5974731 0 -4.41156 -0.80397034 -5.442322 -2.4119263c-1.0101318 -1.6079559 -1.5151978 -5.2258606 -1.5151978 -10.853699l0 -18.275024l-36.27173 0l0 9.833252c0 11.255692 1.144104 19.94484 3.432373 26.067429c2.288208 6.1226044 7.1223755 11.162933 14.502502 15.120972c7.400696 3.9580383 16.326904 5.9370575 26.778625 5.9370575c9.524048 0 17.873047 -1.711029 25.046997 -5.133087c7.17395 -3.4426727 12.008118 -7.6996307 14.502502 -12.770874c2.5150146 -5.0712433 3.772522 -12.956406 3.772522 -23.655487c0 -14.718979 -2.2573242 -25.387146 -6.7719727 -32.0045c-4.5146484 -6.6173553 -15.46106 -15.090042 -32.839355 -25.41806c-6.060791 -3.586975 -9.74054 -6.6482697 -11.039246 -9.183899c-1.3605957 -2.5356216 -2.0408936 -6.3081284 -2.0408936 -11.317528c0 -3.896202 0.59783936 -6.802887 1.7935181 -8.720062c1.2162476 -1.9171829 2.9994507 -2.8757706 5.3495483 -2.8757706c2.1645508 0 3.7106323 0.71121216 4.6383057 2.1336365c0.92767334 1.4224243 1.3915405 4.7310944 1.3915405 9.926033l0 11.131996l36.27173 0l0 -5.937065c0 -11.935974 -1.1647339 -20.388054 -3.4942017 -25.356216c-2.308899 -4.988785 -7.039978 -9.122055 -14.193298 -12.399811c-7.1327515 -3.2777557 -15.770325 -4.9166336 -25.912842 -4.9166336z" fill-rule="evenodd"/><path fill="#ff0000" d="m811.3726 188.45596l0 30.613007l28.293823 0l0 -30.613007z" fill-rule="evenodd"/></g></svg>