<svg version="1.1" viewBox="0.0 0.0 960.0 540.0" fill="none" stroke="none" stroke-linecap="square" stroke-miterlimit="10" xmlns:xlink="http://www.w3.org/1999/xlink" xmlns="http://www.w3.org/2000/svg"><clipPath id="p.0"><path d="m0 0l960.0 0l0 540.0l-960.0 0l0 -540.0z" clip-rule="nonzero"/></clipPath><g clip-path="url(#p.0)"><path fill="#ffffff" d="m0 0l960.0 0l0 540.0l-960.0 0z" fill-rule="evenodd"/><path fill="#ff0000" d="m166.08888 201.62793l0 96.16882c0 5.178528 -0.112579346 8.668396 -0.33773804 10.469635c-0.22514343 1.801239 -1.0694733 3.3210144 -2.5329742 4.5593567c-1.463501 1.2383728 -3.4617462 1.857544 -5.9947205 1.857544c-0.9569092 0 -2.504837 -0.08444214 -4.643799 -0.2532959l0 23.89444l17.815292 0c7.8803864 0 13.771896 -0.60043335 17.674576 -1.801239c3.9214172 -1.219574 7.017288 -3.4054565 9.287598 -6.5575867c2.2890472 -3.1521606 3.5743103 -6.679596 3.8557587 -10.582245c0.2814331 -3.9214172 0.42216492 -12.721191 0.42216492 -26.399292l0 -91.35614z" fill-rule="evenodd"/><path fill="#ff0000" d="m284.4635 232.19255c1.8012085 22.74054 3.6024475 41.85048 5.4036865 57.32979l-12.158325 0c0.90063477 -12.10202 3.1521606 -31.211945 6.7546387 -57.32979zm-73.11871 78.26909l0 27.862793l25.751968 0l0 -27.862793zm45.931366 -108.83371l-18.068573 136.6965l36.812653 0l2.1108093 -24.569916l12.749329 0l1.7730713 24.569916l36.390503 0l-20.348267 -136.6965zm73.79416 108.83371l0 27.862793l25.751984 0l0 -27.862793z" fill-rule="evenodd"/><path fill="#ff0000" d="m402.5848 225.01578c4.1090393 0 6.9328613 0.6754608 8.471405 2.0263824c1.557312 1.3509216 2.335968 4.1934967 2.335968 8.52771l0 7.514496c0 6.022873 -0.8067932 9.587799 -2.4204102 10.694809c-1.5948486 1.0882416 -4.390503 1.63237 -8.386963 1.63237l0 -30.395767zm-35.546173 -23.387848l0 136.6965l35.546173 0l0 -61.635864c4.8970947 0 7.9179077 0.87246704 9.062439 2.6174316c1.163269 1.7449341 1.7449341 6.2761536 1.7449341 13.593658l0 45.424774l33.013184 0l0 -36.052765c0 -11.032532 -0.30020142 -17.768372 -0.90063477 -20.20755c-0.5816345 -2.4579163 -2.082672 -5.1503906 -4.5030518 -8.077393c-2.4204102 -2.927002 -7.148651 -5.26297 -14.184692 -7.007904c7.7677917 -0.7317505 12.974487 -2.927002 15.620026 -6.5857544c2.6455688 -3.6587524 3.9683533 -10.807373 3.9683533 -21.445892c0 -11.651718 -1.8762817 -20.132507 -5.628845 -25.442383c-3.7337952 -5.328644 -8.5746155 -8.640274 -14.52243 -9.934906c-5.9290466 -1.2946472 -17.280548 -1.9419556 -34.054504 -1.9419556z" fill-rule="evenodd"/><path fill="#ff0000" d="m456.1151 310.46164l0 27.862793l25.751953 0l0 -27.862793zm27.862793 -108.83371l20.51712 136.6965l53.952484 0l18.068604 -136.6965l-37.4881 0l-2.4485474 25.41423c-2.0264282 20.432709 -3.9683228 43.792404 -5.8258667 70.07912c-1.857544 -26.005249 -4.953369 -57.83638 -9.287598 -95.49335zm94.564575 108.83371l0 27.862793l25.751953 0l0 -27.862793z" fill-rule="evenodd"/><path fill="#ff0000" d="m614.5108 201.62793l0 136.6965l35.546143 0l0 -136.6965z" fill-rule="evenodd"/><path fill="#ff0000" d="m660.2733 310.46164l0 27.862793l25.751953 0l0 -27.862793z" fill-rule="evenodd"/><path fill="#ff0000" d="m731.87225 198.75722c-8.443298 0 -15.648193 1.36969 -21.614807 4.1090546c-5.9665527 2.7206116 -10.291382 6.5013123 -12.974487 11.342117c-2.6643066 4.8408203 -3.99646 12.496048 -3.99646 22.965698c0 7.2612 0.93811035 13.227783 2.814392 17.89972c1.8950806 4.6719513 4.277954 8.330704 7.1486816 10.976242c2.8706665 2.6455688 8.72467 6.895355 17.56195 12.749329c8.83728 5.7977295 14.381714 9.934937 16.63324 12.411621c2.1952515 2.4766846 3.2929077 7.7396545 3.2929077 15.78891c0 3.6587524 -0.58166504 6.41687 -1.7449341 8.274384c-1.1445923 1.857544 -2.8988647 2.7862854 -5.2630005 2.7862854c-2.3641357 0 -4.015259 -0.7317505 -4.953369 -2.1952515c-0.91937256 -1.463501 -1.3790894 -4.756378 -1.3790894 -9.878601l0 -16.63324l-33.013184 0l0 8.94986c0 10.244507 1.0413818 18.153015 3.1240234 23.725586c2.0827026 5.5725403 6.482544 10.160065 13.199646 13.762512c6.73584 3.602478 14.860168 5.4036865 24.372925 5.4036865c8.668396 0 16.267334 -1.557312 22.796814 -4.671936c6.529419 -3.1333923 10.929321 -7.007904 13.199646 -11.623566c2.2890625 -4.6156616 3.4335938 -11.792419 3.4335938 -21.530334c0 -13.396637 -2.0545654 -23.106415 -6.163574 -29.129272c-4.10907 -6.0228577 -14.072144 -13.734375 -29.889221 -23.134552c-5.5162354 -3.2647247 -8.8654175 -6.05101 -10.047485 -8.358826c-1.2383423 -2.3078308 -1.8574829 -5.7414246 -1.8574829 -10.3007965c0 -3.5461578 0.5441284 -6.1917267 1.6323242 -7.936661c1.1070557 -1.7449493 2.7300415 -2.6174164 4.8689575 -2.6174164c1.9700928 0 3.3773193 0.6473236 4.2216797 1.9419556c0.8442993 1.294632 1.2664795 4.306061 1.2664795 9.0342865l0 10.1319275l33.013184 0l0 -5.4036865c0 -10.863678 -1.0601196 -18.556427 -3.1802979 -23.078262c-2.1014404 -4.5406036 -6.4075317 -8.302551 -12.918213 -11.285843c-6.4919434 -2.9832916 -14.353577 -4.47493 -23.584839 -4.47493z" fill-rule="evenodd"/><path fill="#ff0000" d="m781.6031 310.46164l0 27.862793l25.751953 0l0 -27.862793z" fill-rule="evenodd"/></g></svg>