<svg version="1.1" viewBox="0.0 0.0 960.0 288.0" fill="none" stroke="none" stroke-linecap="square" stroke-miterlimit="10" xmlns:xlink="http://www.w3.org/1999/xlink" xmlns="http://www.w3.org/2000/svg"><clipPath id="p.0"><path d="m0 0l960.0 0l0 288.0l-960.0 0l0 -288.0z" clip-rule="nonzero"/></clipPath><g clip-path="url(#p.0)"><path fill="#ffffff" d="m0 0l960.0 0l0 288.0l-960.0 0z" fill-rule="evenodd"/><path fill="#ff0000" d="m135.10506 52.492622l0 105.66122c0 5.689682 -0.123687744 9.524033 -0.37106323 11.503052c-0.24737549 1.9790344 -1.1750488 3.6488342 -2.7830048 5.0093994c-1.6079559 1.3605804 -3.803421 2.0408783 -6.586426 2.0408783c-1.0513535 0 -2.7520752 -0.09277344 -5.102165 -0.27830505l0 26.25296l19.573769 0c8.658218 0 15.131256 -0.6596832 19.419144 -1.9790192c4.308487 -1.3399658 7.7099304 -3.7415924 10.20433 -7.2048798c2.5149994 -3.4632874 3.927124 -7.3388824 4.2363434 -11.626755c0.30921936 -4.308502 0.46383667 -13.976837 0.46383667 -29.005035l0 -100.37351z" fill-rule="evenodd"/><path fill="#ff0000" d="m265.1639 86.07415c1.9790039 24.985146 3.9580383 45.98133 5.937042 62.98855l-13.358368 0c0.98950195 -13.296555 3.4632874 -34.292732 7.4213257 -62.98855zm-80.33592 85.99468l0 30.612991l28.293823 0l0 -30.612991zm50.465057 -119.57621l-19.852066 150.18921l40.44626 0l2.3191528 -26.995102l14.007782 0l1.9480896 26.995102l39.98242 0l-22.35675 -150.18921zm81.07805 119.57621l0 30.612991l28.293823 0l0 -30.612991z" fill-rule="evenodd"/><path fill="#ff0000" d="m394.94443 78.18898c4.5146484 0 7.6171875 0.7421341 9.307587 2.2264023c1.711029 1.4842682 2.5665588 4.6074066 2.5665588 9.369431l0 8.256233c0 6.6173553 -0.8864441 10.534172 -2.6593018 11.7504425c-1.7522583 1.1956635 -4.823883 1.7934875 -9.214844 1.7934875l0 -33.395996zm-39.05475 -25.696358l0 150.18921l39.05475 0l0 -67.71965c5.380493 0 8.699463 0.95858765 9.95697 2.875763c1.2781067 1.9171753 1.9171753 6.8956604 1.9171753 14.935425l0 49.908463l36.27176 0l0 -39.61136c0 -12.121506 -0.32983398 -19.522217 -0.98950195 -22.202148c-0.6390686 -2.7005463 -2.2882385 -5.6587677 -4.947571 -8.87468c-2.6593018 -3.2159119 -7.854248 -5.7824554 -15.584778 -7.6996307c8.534515 -0.80397797 14.255127 -3.2159119 17.161804 -7.2358017c2.9067078 -4.019882 4.3600464 -11.87413 4.3600464 -23.562729c0 -12.801796 -2.061493 -22.11969 -6.1844482 -27.953682c-4.102356 -5.8546066 -9.420959 -9.493118 -15.955872 -10.915539c-6.514282 -1.4224243 -18.986237 -2.1336327 -37.415863 -2.1336327z" fill-rule="evenodd"/><path fill="#ff0000" d="m453.75848 172.06883l0 30.612991l28.293854 0l0 -30.612991zm30.613007 -119.57621l22.542297 150.18921l59.277863 0l19.852112 -150.18921l-41.188416 0l-2.6902466 27.92276c-2.2263794 22.449532 -4.3600464 48.114967 -6.400879 76.996315c-2.0408936 -28.572128 -5.442322 -63.54515 -10.204346 -104.919075zm103.89865 119.57621l0 30.612991l28.293823 0l0 -30.612991z" fill-rule="evenodd"/><path fill="#ff0000" d="m627.78876 52.492622l0 150.18921l39.05475 0l0 -150.18921z" fill-rule="evenodd"/><path fill="#ff0000" d="m678.06824 172.06883l0 30.612991l28.293823 0l0 -30.612991z" fill-rule="evenodd"/><path fill="#ff0000" d="m756.7344 49.338554c-9.276672 0 -17.192749 1.5048828 -23.748291 4.5146446c-6.555481 2.9891472 -11.30719 7.143032 -14.255127 12.461651c-2.9273071 5.3186264 -4.39093 13.729462 -4.39093 25.232529c0 7.977936 1.0307007 14.53344 3.0922241 19.666527c2.0820923 5.133095 4.7001343 9.152977 7.854248 12.0596695c3.1540527 2.9066849 9.585876 7.575943 19.29541 14.007767c9.709595 6.3699646 15.80127 10.915543 18.275085 13.636688c2.4119263 2.721161 3.617859 8.503616 3.617859 17.347366c0 4.019882 -0.6390381 7.0502625 -1.9171753 9.0911255c-1.2575073 2.0408783 -3.1849976 3.0613098 -5.7824707 3.0613098c-2.597412 0 -4.41156 -0.8039856 -5.4422607 -2.4119415c-1.0101318 -1.6079559 -1.5151978 -5.2258453 -1.5151978 -10.853699l0 -18.275024l-36.27179 0l0 9.833267c0 11.255692 1.144165 19.944824 3.432373 26.067429c2.288269 6.1226044 7.1224365 11.162918 14.502502 15.120956c7.400757 3.9580536 16.326965 5.9370728 26.778687 5.9370728c9.524048 0 17.873047 -1.711029 25.046997 -5.133087c7.17395 -3.442688 12.008118 -7.6996307 14.502502 -12.770874c2.5150146 -5.0712433 3.772522 -12.956406 3.772522 -23.655502c0 -14.718979 -2.2573242 -25.38713 -6.7719727 -32.004486c-4.5146484 -6.6173553 -15.461121 -15.090042 -32.839417 -25.418068c-6.06073 -3.586975 -9.7404785 -6.6482773 -11.039246 -9.183899c-1.3605347 -2.5356216 -2.0408325 -6.3081284 -2.0408325 -11.317528c0 -3.896202 0.59783936 -6.802887 1.793457 -8.720062c1.2163086 -1.9171829 2.9994507 -2.8757706 5.3495483 -2.8757706c2.1645508 0 3.7106934 0.71121216 4.6383667 2.1336365c0.92767334 1.4224167 1.3914795 4.7310944 1.3914795 9.926033l0 11.131996l36.27179 0l0 -5.937065c0 -11.935974 -1.1647949 -20.388054 -3.4942627 -25.356216c-2.308838 -4.9887886 -7.039917 -9.122055 -14.193298 -12.399811c-7.1326904 -3.2777557 -15.770325 -4.9166336 -25.91278 -4.9166336z" fill-rule="evenodd"/><path fill="#ff0000" d="m811.3739 172.06883l0 30.612991l28.293823 0l0 -30.612991z" fill-rule="evenodd"/><path fill="#ff0000" d="m122.48715 215.65804l0 15.84581c0 0.8532715 -0.018547058 1.4283142 -0.055648804 1.7250977c-0.037101746 0.2967987 -0.17622375 0.5472107 -0.41737366 0.7512512c-0.24115753 0.20404053 -0.5704193 0.3060608 -0.98779297 0.3060608c-0.1576767 0 -0.4127426 -0.013900757 -0.7651901 -0.041732788l0 3.9371033l2.9355469 0c1.2985077 0 2.2693024 -0.09892273 2.9123611 -0.29678345c0.64617157 -0.20095825 1.1563034 -0.5611267 1.5303802 -1.0805054c0.37719727 -0.51937866 0.58895874 -1.1006012 0.63534546 -1.7436371c0.04637146 -0.6461334 0.06956482 -2.0960846 0.06956482 -4.3498383l0 -15.052826z" fill-rule="evenodd"/><path fill="#ff0000" d="m130.52861 215.65804l0 13.327728c0 2.541275 0.04637146 4.2091675 0.13912964 5.003708c0.09274292 0.7914429 0.3941803 1.5442352 0.90431213 2.2583923c0.51013184 0.71414185 1.279953 1.293808 2.3094788 1.7389984c1.029541 0.44519043 2.2167358 0.66778564 3.561615 0.66778564c1.2150269 0 2.2693024 -0.18704224 3.162796 -0.5611267c0.8965912 -0.37716675 1.6184845 -0.9290161 2.1657104 -1.6555328c0.5472412 -0.72961426 0.87649536 -1.4391174 0.98779297 -2.12854c0.111312866 -0.69252014 0.16696167 -1.8920441 0.16696167 -3.598587l0 -15.052826l-5.857193 0l0 16.597061c0 1.1222382 -0.054092407 1.8348541 -0.16230774 2.1378174c-0.10510254 0.29988098 -0.34318542 0.4498291 -0.7141876 0.4498291c-0.32461548 0 -0.5410309 -0.1360321 -0.6492462 -0.40808105c-0.10510254 -0.27516174 -0.15766907 -0.9042969 -0.15766907 -1.8874054l0 -16.889221z" fill-rule="evenodd"/><path fill="#ff0000" d="m152.06525 215.18503c-1.3912506 0 -2.5784607 0.22567749 -3.561615 0.6770477c-0.9831543 0.4482727 -1.6957703 1.071228 -2.1378937 1.8688507c-0.43901062 0.7976227 -0.65852356 2.0589905 -0.65852356 3.7840729c0 1.1964417 0.15458679 2.1795654 0.46374512 2.949356c0.31227112 0.7698059 0.7049103 1.3726501 1.1779327 1.8085632c0.47302246 0.4359131 1.4376221 1.1361542 2.893814 2.1007233c1.4561768 0.95529175 2.3697662 1.6369781 2.7407684 2.0450745c0.36172485 0.40808105 0.5425873 1.2752686 0.5425873 2.6015472c0 0.6028595 -0.095825195 1.057312 -0.28752136 1.3633728c-0.18858337 0.30607605 -0.47766113 0.45910645 -0.867218 0.45910645c-0.38955688 0 -0.66160583 -0.12057495 -0.8162079 -0.3617096c-0.151474 -0.2411499 -0.22723389 -0.7837219 -0.22723389 -1.6277161l0 -2.7406769l-5.439804 0l0 1.4746857c0 1.6879883 0.17158508 2.9910889 0.51475525 3.9092865c0.34318542 0.9181824 1.0681915 1.6740723 2.175003 2.2676544c1.1099243 0.59358215 2.4486084 0.89038086 4.016083 0.89038086c1.42836 0 2.6804962 -0.25660706 3.7563934 -0.7698059c1.0759125 -0.5162964 1.8009186 -1.1546936 2.175003 -1.9152222c0.37719727 -0.76052856 0.5657654 -1.9430542 0.5657654 -3.547577c0 -2.2073822 -0.3385315 -3.8072662 -1.0156097 -4.799652c-0.67707825 -0.99238586 -2.318756 -2.263031 -4.925049 -3.811905c-0.9089508 -0.53793335 -1.4608154 -0.99702454 -1.6555939 -1.3772888c-0.20404053 -0.38026428 -0.30607605 -0.9460144 -0.30607605 -1.6972656c0 -0.5843048 0.0896759 -1.0202179 0.26898193 -1.3077393c0.18241882 -0.2875061 0.44984436 -0.4312744 0.80229187 -0.4312744c0.32463074 0 0.5565033 0.106658936 0.6956177 0.3199768c0.13912964 0.21331787 0.20869446 0.70951843 0.20869446 1.4886017l0 1.6694336l5.439804 0l0 -0.8903656c0 -1.7900238 -0.17466736 -3.0575562 -0.5240326 -3.8026276c-0.34625244 -0.7481537 -1.0558014 -1.3680115 -2.1286163 -1.8595734c-1.0697174 -0.4915619 -2.3651428 -0.7373352 -3.8862457 -0.7373352z" fill-rule="evenodd"/><path fill="#ff0000" d="m159.92584 215.65804l0 4.5075073l3.4642181 0l0 18.016083l5.857193 0l0 -18.016083l3.4781342 0l0 -4.5075073z" fill-rule="evenodd"/><path fill="#ff0000" d="m185.20496 220.6942c0.2967987 3.7469788 0.5935974 6.8957367 0.8903961 9.446274l-2.0034027 0c0.14840698 -1.9940643 0.5194092 -5.1428223 1.1130066 -9.446274zm-4.479843 -5.0361633l-2.977295 22.52359l6.0658875 0l0.34780884 -4.048401l2.1007996 0l0.29216003 4.048401l5.9963074 0l-3.3529205 -22.52359z" fill-rule="evenodd"/><path fill="#ff0000" d="m193.55249 215.65804l0 22.52359l4.897217 0l0 -10.239258l3.0468445 10.239258l5.1337433 0l0 -22.52359l-4.897217 0l0 10.141876l-3.283371 -10.141876z" fill-rule="evenodd"/><path fill="#ff0000" d="m215.6178 218.99692c0.36172485 0 0.5997772 0.14685059 0.7141876 0.44055176c0.11747742 0.29060364 0.17622375 0.9599304 0.17622375 2.0079803l0 10.350555c0 1.3262787 -0.055648804 2.1656342 -0.16696167 2.5180817c-0.11129761 0.35243225 -0.36636353 0.528656 -0.7651825 0.528656c-0.38955688 0 -0.638443 -0.1530304 -0.74664307 -0.45910645c-0.1051178 -0.3060608 -0.15766907 -1.1129608 -0.15766907 -2.4206848l0 -10.517502c0 -1.1593475 0.08036804 -1.8564911 0.2411499 -2.091446c0.16384888 -0.23805237 0.39881897 -0.35708618 0.704895 -0.35708618zm-0.027816772 -3.8118896c-1.2706909 0 -2.3836823 0.2086792 -3.3390198 0.6260376c-0.95532227 0.4173584 -1.7143402 1.0155792 -2.2770233 1.7946472c-0.55960083 0.77908325 -0.89349365 1.6400757 -1.0016937 2.5830078c-0.10513306 0.9398346 -0.15768433 2.541275 -0.15768433 4.804291l0 3.8536377c0 2.3186798 0.055648804 3.941742 0.16694641 4.869217c0.111312866 0.927475 0.4591217 1.7853851 1.0434418 2.5737305c0.5843353 0.78834534 1.3556976 1.3803864 2.3141327 1.7761078c0.9615021 0.3926239 2.0451355 0.5889435 3.2509003 0.5889435c1.2706757 0 2.3836823 -0.20869446 3.3390045 -0.62605286c0.9553375 -0.4173584 1.7127838 -1.0155792 2.2723846 -1.7946472c0.5626831 -0.77908325 0.8965912 -1.6385345 1.001709 -2.5783691c0.10820007 -0.9429321 0.16230774 -2.5458984 0.16230774 -4.8089294l0 -3.8536377c0 -2.3186646 -0.055648804 -3.941742 -0.16694641 -4.869217c-0.11129761 -0.9274597 -0.4591217 -1.7853699 -1.0434418 -2.5737305c-0.58432007 -0.78834534 -1.357254 -1.37883 -2.318756 -1.7714539c-0.95843506 -0.39572144 -2.040512 -0.59358215 -3.2462616 -0.59358215z" fill-rule="evenodd"/><path fill="#ff0000" d="m223.54796 215.65804l0 4.5075073l3.4642334 0l0 18.016083l5.8571777 0l0 -18.016083l3.4781342 0l0 -4.5075073z" fill-rule="evenodd"/><path fill="#ff0000" d="m237.68312 215.65804l0 22.52359l5.8571777 0l0 -9.46019l1.7529907 0l0 9.46019l5.8571777 0l0 -22.52359l-5.8571777 0l0 8.055069l-1.7529907 0l0 -8.055069z" fill-rule="evenodd"/><path fill="#ff0000" d="m253.5017 215.65804l0 22.52359l10.156174 0l0 -4.507492l-4.2989807 0l0 -4.9526978l3.6589966 0l0 -4.284897l-3.6589966 0l0 -4.270996l3.9094238 0l0 -4.5075073z" fill-rule="evenodd"/><path fill="#ff0000" d="m271.19846 219.51167c0.6770935 0 1.1423645 0.11129761 1.3959045 0.33389282c0.2565918 0.22257996 0.3849182 0.69096375 0.3849182 1.4051056l0 1.2381744c0 0.99238586 -0.13296509 1.5797882 -0.39883423 1.7621918c-0.26278687 0.17930603 -0.7234497 0.26896667 -1.3819885 0.26896667l0 -5.0083313zm-5.8571777 -3.8536377l0 22.52359l5.8571777 0l0 -10.155792c0.8069458 0 1.3046875 0.14376831 1.4932861 0.4312744c0.19168091 0.28752136 0.28753662 1.0341339 0.28753662 2.2398376l0 7.48468l5.439789 0l0 -5.9404297c0 -1.8178406 -0.049468994 -2.927719 -0.14837646 -3.3296204c-0.09585571 -0.40499878 -0.34320068 -0.8486328 -0.7420044 -1.3309174c-0.39883423 -0.48228455 -1.177948 -0.8671875 -2.3373108 -1.1547089c1.2799377 -0.12055969 2.1378784 -0.48228455 2.573822 -1.0851288c0.4359131 -0.6028595 0.6538696 -1.7807465 0.6538696 -3.533661c0 -1.9198608 -0.30917358 -3.3172455 -0.92749023 -4.192169c-0.6152649 -0.878006 -1.4129028 -1.4236603 -2.3929749 -1.6369781c-0.9769592 -0.21331787 -2.847412 -0.3199768 -5.611389 -0.3199768z" fill-rule="evenodd"/><path fill="#ff0000" d="m291.56644 219.51167c0.6770935 0 1.1423645 0.11129761 1.3959045 0.33389282c0.2565918 0.22257996 0.3849182 0.69096375 0.3849182 1.4051056l0 1.2381744c0 0.99238586 -0.13296509 1.5797882 -0.39883423 1.7621918c-0.26278687 0.17930603 -0.7234497 0.26896667 -1.3819885 0.26896667l0 -5.0083313zm-5.8571777 -3.8536377l0 22.52359l5.8571777 0l0 -10.155792c0.8069458 0 1.3046875 0.14376831 1.4932861 0.4312744c0.19168091 0.28752136 0.28753662 1.0341339 0.28753662 2.2398376l0 7.48468l5.439789 0l0 -5.9404297c0 -1.8178406 -0.049468994 -2.927719 -0.14837646 -3.3296204c-0.09585571 -0.40499878 -0.34320068 -0.8486328 -0.7420044 -1.3309174c-0.39883423 -0.48228455 -1.177948 -0.8671875 -2.3373108 -1.1547089c1.2799377 -0.12055969 2.1378784 -0.48228455 2.573822 -1.0851288c0.4359131 -0.6028595 0.6538696 -1.7807465 0.6538696 -3.533661c0 -1.9198608 -0.30917358 -3.3172455 -0.92749023 -4.192169c-0.6152649 -0.878006 -1.4129028 -1.4236603 -2.3929749 -1.6369781c-0.9769592 -0.21331787 -2.847412 -0.3199768 -5.611389 -0.3199768z" fill-rule="evenodd"/><path fill="#ff0000" d="m301.0548 215.65804l0 22.52359l10.156158 0l0 -4.507492l-4.2989807 0l0 -4.9526978l3.6589966 0l0 -4.284897l-3.6589966 0l0 -4.270996l3.9094238 0l0 -4.5075073z" fill-rule="evenodd"/><path fill="#ff0000" d="m312.89438 215.65804l0 22.52359l5.1198425 0l0 -14.858063l2.156433 14.858063l3.631195 0l2.0451355 -15.205856l0 15.205856l5.119812 0l0 -22.52359l-7.6380005 0l-1.3356018 10.517502l-0.8069153 -5.7317657c-0.25042725 -1.83638 -0.48693848 -3.4316254 -0.7095337 -4.785736z" fill-rule="evenodd"/><path fill="#ff0000" d="m339.43954 220.6942c0.29681396 3.7469788 0.5935974 6.8957367 0.8904114 9.446274l-2.003418 0c0.14840698 -1.9940643 0.5194092 -5.1428223 1.1130066 -9.446274zm-4.479828 -5.0361633l-2.977295 22.52359l6.065857 0l0.34783936 -4.048401l2.100769 0l0.2921753 4.048401l5.9963074 0l-3.3529053 -22.52359z" fill-rule="evenodd"/><path fill="#ff0000" d="m353.64426 219.51167c0.6770935 0 1.142395 0.11129761 1.3959045 0.33389282c0.2566223 0.22257996 0.3849182 0.69096375 0.3849182 1.4051056l0 1.2381744c0 0.99238586 -0.13293457 1.5797882 -0.39883423 1.7621918c-0.26278687 0.17930603 -0.7234497 0.26896667 -1.3819885 0.26896667l0 -5.0083313zm-5.8571777 -3.8536377l0 22.52359l5.8571777 0l0 -10.155792c0.8069458 0 1.3046875 0.14376831 1.4932861 0.4312744c0.19168091 0.28752136 0.28753662 1.0341339 0.28753662 2.2398376l0 7.48468l5.4398193 0l0 -5.9404297c0 -1.8178406 -0.049468994 -2.927719 -0.14840698 -3.3296204c-0.09585571 -0.40499878 -0.34317017 -0.8486328 -0.7420044 -1.3309174c-0.39883423 -0.48228455 -1.177948 -0.8671875 -2.3373108 -1.1547089c1.2799377 -0.12055969 2.1378784 -0.48228455 2.573822 -1.0851288c0.4359131 -0.6028595 0.65390015 -1.7807465 0.65390015 -3.533661c0 -1.9198608 -0.30917358 -3.3172455 -0.92752075 -4.192169c-0.6152344 -0.878006 -1.4129028 -1.4236603 -2.3929443 -1.6369781c-0.97698975 -0.21331787 -2.8474426 -0.3199768 -5.6114197 -0.3199768z" fill-rule="evenodd"/><path fill="#ff0000" d="m384.54407 220.6942c0.29678345 3.7469788 0.5935974 6.8957367 0.89038086 9.446274l-2.0033875 0c0.14837646 -1.9940643 0.51937866 -5.1428223 1.1130066 -9.446274zm-21.411438 -5.0361633l0 22.52359l5.8571777 0l0 -9.654953l2.3651428 9.654953l11.797852 0l0.34780884 -4.048401l2.1007996 0l0.2921753 4.048401l5.9963074 0l-3.3529358 -22.52359l-8.472748 0l-2.8788147 21.778564l-3.4513855 -11.608856l3.3529053 -10.169708l-5.495453 0l-2.601654 8.750671l0 -8.750671z" fill-rule="evenodd"/><path fill="#ff0000" d="m398.74878 219.51167c0.60287476 0.009277344 1.0078735 0.05101013 1.2150269 0.12519836c0.2102356 0.07420349 0.38027954 0.25350952 0.51013184 0.53793335c0.1298523 0.28134155 0.19476318 0.7744446 0.19476318 1.4793243c0 1.335556 -0.078826904 2.1455383 -0.23651123 2.4299622c-0.15768433 0.28134155 -0.52404785 0.42199707 -1.0990906 0.42199707c-0.13912964 0 -0.33389282 0.004638672 -0.58432007 0.013916016l0 -5.0083313zm0 8.51416c0.8718567 0.027832031 1.40979 0.14376831 1.6138611 0.34780884c0.20404053 0.20404053 0.3060608 0.78834534 0.3060608 1.7529144l0 2.1007233c0 0.9089203 -0.11437988 1.4793091 -0.34317017 1.7111816c-0.22567749 0.2318573 -0.75128174 0.3617096 -1.5767517 0.38954163l0 -6.30217zm-5.8571777 -12.367798l0 22.52359l6.7753906 0c2.3558655 0 3.9140625 -0.13447571 4.6746216 -0.40344238c0.7605591 -0.26896667 1.3139648 -0.7698059 1.6602478 -1.5025024c0.34933472 -0.73269653 0.52401733 -1.8595734 0.52401733 -3.3806305l0 -2.0868073c0 -1.4653931 -0.2411499 -2.5520782 -0.7234497 -3.2600555c-0.4822998 -0.7110596 -1.4005127 -1.2196198 -2.7546692 -1.5256805c1.2150269 -0.27824402 2.0281372 -0.6770477 2.439331 -1.1964417c0.41427612 -0.51937866 0.62142944 -1.4375763 0.62142944 -2.7545776c0 -1.9476929 -0.2921753 -3.3589935 -0.87649536 -4.233902c-0.58432007 -0.878006 -1.3526001 -1.4607697 -2.30484 -1.7482758c-0.9491577 -0.28752136 -2.3465881 -0.4312744 -4.192322 -0.4312744z" fill-rule="evenodd"/><path fill="#ff0000" d="m408.62668 215.65804l0 22.52359l9.418823 0l0 -4.507492l-3.561615 0l0 -18.016098z" fill-rule="evenodd"/><path fill="#ff0000" d="m419.46457 215.65804l0 22.52359l10.156158 0l0 -4.507492l-4.2989807 0l0 -4.9526978l3.6589966 0l0 -4.284897l-3.6589966 0l0 -4.270996l3.9094238 0l0 -4.5075073z" fill-rule="evenodd"/><path fill="#ff0000" d="m434.99097 215.65804l3.3807678 22.52359l8.890106 0l2.977295 -22.52359l-6.1771545 0l-0.4034729 4.1875305c-0.33389282 3.3667145 -0.65390015 7.2157135 -0.95996094 11.546982c-0.3060913 -4.284897 -0.81622314 -9.529739 -1.5303955 -15.734512z" fill-rule="evenodd"/><path fill="#ff0000" d="m451.24084 215.65804l0 22.52359l5.8571777 0l0 -22.52359z" fill-rule="evenodd"/><path fill="#ff0000" d="m465.32034 215.18503c-1.3912354 0 -2.5784607 0.22567749 -3.561615 0.6770477c-0.9831543 0.4482727 -1.6957703 1.071228 -2.1378784 1.8688507c-0.43902588 0.7976227 -0.6585388 2.0589905 -0.6585388 3.7840729c0 1.1964417 0.15460205 2.1795654 0.46374512 2.949356c0.31225586 0.7698059 0.70492554 1.3726501 1.177948 1.8085632c0.47302246 0.4359131 1.4376221 1.1361542 2.8937988 2.1007233c1.4561768 0.95529175 2.3697815 1.6369781 2.7407837 2.0450745c0.36172485 0.40808105 0.542572 1.2752686 0.542572 2.6015472c0 0.6028595 -0.095825195 1.057312 -0.2875061 1.3633728c-0.18859863 0.30607605 -0.47766113 0.45910645 -0.867218 0.45910645c-0.38955688 0 -0.6616211 -0.12057495 -0.81622314 -0.3617096c-0.15148926 -0.2411499 -0.22723389 -0.7837219 -0.22723389 -1.6277161l0 -2.7406769l-5.439789 0l0 1.4746857c0 1.6879883 0.17156982 2.9910889 0.51474 3.9092865c0.34320068 0.9181824 1.0681763 1.6740723 2.1750183 2.2676544c1.1098938 0.59358215 2.4486084 0.89038086 4.016083 0.89038086c1.4283447 0 2.680481 -0.25660706 3.7563782 -0.7698059c1.0759277 -0.5162964 1.8009033 -1.1546936 2.1750183 -1.9152222c0.37716675 -0.76052856 0.5657654 -1.9430542 0.5657654 -3.547577c0 -2.2073822 -0.3385315 -3.8072662 -1.015625 -4.799652c-0.677063 -0.99238586 -2.318756 -2.263031 -4.925049 -3.811905c-0.90893555 -0.53793335 -1.4608154 -0.99702454 -1.6555786 -1.3772888c-0.20404053 -0.38026428 -0.3060913 -0.9460144 -0.3060913 -1.6972656c0 -0.5843048 0.089660645 -1.0202179 0.26898193 -1.3077393c0.18240356 -0.2875061 0.44985962 -0.4312744 0.8023071 -0.4312744c0.32461548 0 0.55648804 0.106658936 0.6956177 0.3199768c0.13912964 0.21331787 0.2086792 0.70951843 0.2086792 1.4886017l0 1.6694336l5.4398193 0l0 -0.8903656c0 -1.7900238 -0.17468262 -3.0575562 -0.52404785 -3.8026276c-0.34625244 -0.7481537 -1.0557861 -1.3680115 -2.128601 -1.8595734c-1.0697327 -0.4915619 -2.3651428 -0.7373352 -3.886261 -0.7373352z" fill-rule="evenodd"/><path fill="#ff0000" d="m474.09918 215.65804l0 13.327728c0 2.541275 0.0463562 4.2091675 0.13912964 5.003708c0.09274292 0.7914429 0.39416504 1.5442352 0.9042969 2.2583923c0.51013184 0.71414185 1.2799683 1.293808 2.3094788 1.7389984c1.029541 0.44519043 2.2167358 0.66778564 3.561615 0.66778564c1.2150574 0 2.2693176 -0.18704224 3.1628113 -0.5611267c0.8965759 -0.37716675 1.6184692 -0.9290161 2.1657104 -1.6555328c0.5472412 -0.72961426 0.87649536 -1.4391174 0.98779297 -2.12854c0.11129761 -0.69252014 0.16696167 -1.8920441 0.16696167 -3.598587l0 -15.052826l-5.8572083 0l0 16.597061c0 1.1222382 -0.054107666 1.8348541 -0.16229248 2.1378174c-0.10513306 0.29988098 -0.34320068 0.4498291 -0.7142029 0.4498291c-0.32461548 0 -0.5410156 -0.1360321 -0.64923096 -0.40808105c-0.10513306 -0.27516174 -0.15768433 -0.9042969 -0.15768433 -1.8874054l0 -16.889221z" fill-rule="evenodd"/><path fill="#ff0000" d="m495.88623 220.6942c0.29681396 3.7469788 0.5935974 6.8957367 0.8904114 9.446274l-2.003418 0c0.14840698 -1.9940643 0.5194092 -5.1428223 1.1130066 -9.446274zm-4.479828 -5.0361633l-2.977295 22.52359l6.0658875 0l0.34780884 -4.048401l2.1007996 0l0.29214478 4.048401l5.9963074 0l-3.3529053 -22.52359z" fill-rule="evenodd"/><path fill="#ff0000" d="m504.23376 215.65804l0 22.52359l9.418823 0l0 -4.507492l-3.5616455 0l0 -18.016098z" fill-rule="evenodd"/><path fill="#ff0000" d="m515.07166 215.65804l0 22.52359l5.8571777 0l0 -22.52359z" fill-rule="evenodd"/><path fill="#ff0000" d="m540.71246 220.6942c0.29681396 3.7469788 0.5936279 6.8957367 0.8904419 9.446274l-2.003418 0c0.14837646 -1.9940643 0.5194092 -5.1428223 1.1129761 -9.446274zm-17.905457 -5.0361633l0 4.5075073l3.979004 0l-4.5076294 14.746765l0 3.2693176l10.796143 0l0 -4.507492l-4.3685913 0l4.3685913 -13.508591l0 -4.5075073zm13.425659 0l-2.977295 22.52359l6.065857 0l0.34783936 -4.048401l2.100769 0l0.2921753 4.048401l5.996338 0l-3.3529663 -22.52359zm11.825684 0l0 4.5075073l3.4641724 0l0 18.016083l5.857239 0l0 -18.016083l3.4780884 0l0 -4.5075073z" fill-rule="evenodd"/><path fill="#ff0000" d="m562.1935 215.65804l0 22.52359l5.8571777 0l0 -22.52359z" fill-rule="evenodd"/><path fill="#ff0000" d="m577.03815 218.99692c0.36175537 0 0.5997925 0.14685059 0.7142334 0.44055176c0.11743164 0.29060364 0.1762085 0.9599304 0.1762085 2.0079803l0 10.350555c0 1.3262787 -0.055664062 2.1656342 -0.16693115 2.5180817c-0.111328125 0.35243225 -0.36639404 0.528656 -0.76519775 0.528656c-0.3895874 0 -0.63842773 -0.1530304 -0.74664307 -0.45910645c-0.105163574 -0.3060608 -0.15771484 -1.1129608 -0.15771484 -2.4206848l0 -10.517502c0 -1.1593475 0.0803833 -1.8564911 0.2411499 -2.091446c0.1638794 -0.23805237 0.39886475 -0.35708618 0.704895 -0.35708618zm-0.027770996 -3.8118896c-1.2706909 0 -2.383728 0.2086792 -3.3390503 0.6260376c-0.95532227 0.4173584 -1.7142944 1.0155792 -2.2770386 1.7946472c-0.5595703 0.77908325 -0.89349365 1.6400757 -1.001648 2.5830078c-0.105163574 0.9398346 -0.15771484 2.541275 -0.15771484 4.804291l0 3.8536377c0 2.3186798 0.055664062 3.941742 0.16699219 4.869217c0.11126709 0.927475 0.45910645 1.7853851 1.043396 2.5737305c0.5843506 0.78834534 1.3557129 1.3803864 2.314148 1.7761078c0.9614868 0.3926239 2.045105 0.5889435 3.2509155 0.5889435c1.2706299 0 2.383667 -0.20869446 3.3389893 -0.62605286c0.95532227 -0.4173584 1.7127686 -1.0155792 2.2724 -1.7946472c0.5626831 -0.77908325 0.8965454 -1.6385345 1.001709 -2.5783691c0.10821533 -0.9429321 0.16229248 -2.5458984 0.16229248 -4.8089294l0 -3.8536377c0 -2.3186646 -0.055664062 -3.941742 -0.16693115 -4.869217c-0.111328125 -0.9274597 -0.45910645 -1.7853699 -1.043457 -2.5737305c-0.5843506 -0.78834534 -1.3572388 -1.37883 -2.3187866 -1.7714539c-0.958374 -0.39572144 -2.0404663 -0.59358215 -3.2462158 -0.59358215z" fill-rule="evenodd"/><path fill="#ff0000" d="m585.97003 215.65804l0 22.52359l4.897217 0l0 -10.239258l3.046875 10.239258l5.133728 0l0 -22.52359l-4.897217 0l0 10.141876l-3.2833862 -10.141876z" fill-rule="evenodd"/><path fill="#ff0000" d="m606.4215 215.65804l0 22.52359l5.8571777 0l0 -22.52359z" fill-rule="evenodd"/><path fill="#ff0000" d="m614.6299 215.65804l0 22.52359l4.897217 0l0 -10.239258l3.046875 10.239258l5.133728 0l0 -22.52359l-4.897217 0l0 10.141876l-3.2833862 -10.141876z" fill-rule="evenodd"/><path fill="#ff0000" d="m629.05725 215.65804l0 4.5075073l3.4641724 0l0 18.016083l5.857239 0l0 -18.016083l3.4780884 0l0 -4.5075073z" fill-rule="evenodd"/><path fill="#ff0000" d="m643.1924 215.65804l0 22.52359l10.156189 0l0 -4.507492l-4.299011 0l0 -4.9526978l3.6589966 0l0 -4.284897l-3.6589966 0l0 -4.270996l3.9094238 0l0 -4.5075073z" fill-rule="evenodd"/><path fill="#ff0000" d="m660.88916 219.51167c0.677063 0 1.142334 0.11129761 1.395874 0.33389282c0.2565918 0.22257996 0.38494873 0.69096375 0.38494873 1.4051056l0 1.2381744c0 0.99238586 -0.1329956 1.5797882 -0.39886475 1.7621918c-0.26281738 0.17930603 -0.7234497 0.26896667 -1.381958 0.26896667l0 -5.0083313zm-5.8571777 -3.8536377l0 22.52359l5.8571777 0l0 -10.155792c0.8069458 0 1.3046875 0.14376831 1.4932861 0.4312744c0.19165039 0.28752136 0.28753662 1.0341339 0.28753662 2.2398376l0 7.48468l5.4397583 0l0 -5.9404297c0 -1.8178406 -0.049438477 -2.927719 -0.14837646 -3.3296204c-0.095825195 -0.40499878 -0.34320068 -0.8486328 -0.7420044 -1.3309174c-0.3988037 -0.48228455 -1.1779175 -0.8671875 -2.3372803 -1.1547089c1.2799072 -0.12055969 2.1378784 -0.48228455 2.5737915 -1.0851288c0.4359131 -0.6028595 0.6538696 -1.7807465 0.6538696 -3.533661c0 -1.9198608 -0.30914307 -3.3172455 -0.92749023 -4.192169c-0.6152344 -0.878006 -1.4129028 -1.4236603 -2.3929443 -1.6369781c-0.97698975 -0.21331787 -2.847412 -0.3199768 -5.611389 -0.3199768z" fill-rule="evenodd"/><path fill="#ff0000" d="m676.499 220.6942c0.29681396 3.7469788 0.5936279 6.8957367 0.8904419 9.446274l-2.003418 0c0.14837646 -1.9940643 0.5194092 -5.1428223 1.1129761 -9.446274zm-4.4798584 -5.0361633l-2.977234 22.52359l6.065857 0l0.34777832 -4.048401l2.10083 0l0.2921753 4.048401l5.996277 0l-3.3529053 -22.52359z" fill-rule="evenodd"/><path fill="#ff0000" d="m691.5107 215.18503c-1.2706909 0 -2.3960571 0.21640015 -3.3760986 0.64923096c-0.97698975 0.42971802 -1.7421875 1.0202179 -2.2955933 1.7714539c-0.55029297 0.7512512 -0.8811035 1.5334167 -0.99243164 2.3465118c-0.11126709 0.8099823 -0.16693115 2.0265198 -0.16693115 3.649582l0 6.5803986c0 2.2073822 0.18084717 3.8613586 0.54260254 4.96196c0.36169434 1.0975037 1.09906 1.9569702 2.2120972 2.5783691c1.1129761 0.6213989 2.5274048 0.93211365 4.243286 0.93211365c1.651001 0 3.0391235 -0.36636353 4.1644897 -1.09906c1.128479 -0.73269653 1.8565674 -1.585968 2.1843262 -2.5598145c0.3307495 -0.97384644 0.4961548 -2.6247406 0.4961548 -4.9526825l0 -0.87646484l-5.8571777 0l0 2.8241425c0 1.2335358 -0.067993164 2.0172577 -0.20404053 2.3511353c-0.13293457 0.33389282 -0.4173584 0.50083923 -0.8532715 0.50083923c-0.45446777 0 -0.74664307 -0.16694641 -0.8765259 -0.50083923c-0.12982178 -0.33387756 -0.19476318 -1.0480347 -0.19476318 -2.142456l0 -10.461853c0 -1.1407928 0.064941406 -1.8827667 0.19476318 -2.2259216c0.12988281 -0.34317017 0.4359131 -0.51475525 0.9182129 -0.51475525c0.42669678 0 0.70184326 0.14221191 0.8255005 0.42663574c0.12677002 0.28134155 0.19012451 0.9924011 0.19012451 2.133194l0 3.9231873l5.8571777 0l0 -2.142456c0 -2.1053467 -0.1762085 -3.655777 -0.5286255 -4.6512604c-0.35247803 -0.9985657 -1.0898438 -1.8317413 -2.2120972 -2.499527c-1.1223145 -0.6677704 -2.5460205 -1.0016632 -4.271179 -1.0016632z" fill-rule="evenodd"/><path fill="#ff0000" d="m699.6217 215.65804l0 4.5075073l3.4642334 0l0 18.016083l5.8571777 0l0 -18.016083l3.4781494 0l0 -4.5075073z" fill-rule="evenodd"/><path fill="#ff0000" d="m713.75684 215.65804l0 22.52359l5.857239 0l0 -22.52359z" fill-rule="evenodd"/><path fill="#ff0000" d="m720.62964 215.65804l3.3807983 22.52359l8.890076 0l2.977295 -22.52359l-6.177185 0l-0.40344238 4.1875305c-0.33392334 3.3667145 -0.6538696 7.2157135 -0.95996094 11.546982c-0.3060913 -4.284897 -0.81622314 -9.529739 -1.5303955 -15.734512z" fill-rule="evenodd"/><path fill="#ff0000" d="m736.8795 215.65804l0 22.52359l10.156189 0l0 -4.507492l-4.299011 0l0 -4.9526978l3.6589966 0l0 -4.284897l-3.6589966 0l0 -4.270996l3.9094238 0l0 -4.5075073z" fill-rule="evenodd"/><path fill="#ff0000" d="m759.6127 215.18503c-1.3912964 0 -2.5784912 0.22567749 -3.5616455 0.6770477c-0.9831543 0.4482727 -1.6958008 1.071228 -2.1378784 1.8688507c-0.43902588 0.7976227 -0.65856934 2.0589905 -0.65856934 3.7840729c0 1.1964417 0.15460205 2.1795654 0.46380615 2.949356c0.31225586 0.7698059 0.704895 1.3726501 1.1779175 1.8085632c0.47302246 0.4359131 1.4376221 1.1361542 2.8937988 2.1007233c1.4561768 0.95529175 2.369751 1.6369781 2.7407837 2.0450745c0.36169434 0.40808105 0.54260254 1.2752686 0.54260254 2.6015472c0 0.6028595 -0.09588623 1.057312 -0.28753662 1.3633728c-0.18859863 0.30607605 -0.47766113 0.45910645 -0.86724854 0.45910645c-0.38952637 0 -0.6616211 -0.12057495 -0.8161621 -0.3617096c-0.15148926 -0.2411499 -0.22723389 -0.7837219 -0.22723389 -1.6277161l0 -2.7406769l-5.4398193 0l0 1.4746857c0 1.6879883 0.17156982 2.9910889 0.5147705 3.9092865c0.34313965 0.9181824 1.0681763 1.6740723 2.1749878 2.2676544c1.1098633 0.59358215 2.4486084 0.89038086 4.0160522 0.89038086c1.4284058 0 2.680542 -0.25660706 3.7564087 -0.7698059c1.0759277 -0.5162964 1.8009033 -1.1546936 2.1749878 -1.9152222c0.37719727 -0.76052856 0.5657959 -1.9430542 0.5657959 -3.547577c0 -2.2073822 -0.338562 -3.8072662 -1.015625 -4.799652c-0.677063 -0.99238586 -2.3187256 -2.263031 -4.925049 -3.811905c-0.90893555 -0.53793335 -1.4608154 -0.99702454 -1.6555786 -1.3772888c-0.20404053 -0.38026428 -0.3060913 -0.9460144 -0.3060913 -1.6972656c0 -0.5843048 0.089660645 -1.0202179 0.26898193 -1.3077393c0.18243408 -0.2875061 0.4498291 -0.4312744 0.8023071 -0.4312744c0.32458496 0 0.55651855 0.106658936 0.6956177 0.3199768c0.13909912 0.21331787 0.2086792 0.70951843 0.2086792 1.4886017l0 1.6694336l5.4398193 0l0 -0.8903656c0 -1.7900238 -0.17468262 -3.0575562 -0.52404785 -3.8026276c-0.34625244 -0.7481537 -1.0557861 -1.3680115 -2.128601 -1.8595734c-1.0697632 -0.4915619 -2.3651733 -0.7373352 -3.8862305 -0.7373352z" fill-rule="evenodd"/><path fill="#ff0000" d="m767.13934 215.65804l4.118103 14.37114l0 8.152451l5.4259033 0l0 -8.152451l4.271179 -14.37114l-5.3841553 0c-0.7605591 3.5058289 -1.3031616 6.4598236 -1.6278076 8.861969c-0.101989746 -1.5210419 -0.5750122 -4.4750366 -1.4190674 -8.861969z" fill-rule="evenodd"/><path fill="#ff0000" d="m787.82733 215.18503c-1.3912964 0 -2.5784912 0.22567749 -3.5616455 0.6770477c-0.9831543 0.4482727 -1.6958008 1.071228 -2.1378784 1.8688507c-0.43902588 0.7976227 -0.6585083 2.0589905 -0.6585083 3.7840729c0 1.1964417 0.15454102 2.1795654 0.46374512 2.949356c0.31225586 0.7698059 0.704895 1.3726501 1.1779175 1.8085632c0.47302246 0.4359131 1.4376221 1.1361542 2.8937988 2.1007233c1.4561768 0.95529175 2.369751 1.6369781 2.7407837 2.0450745c0.36169434 0.40808105 0.54260254 1.2752686 0.54260254 2.6015472c0 0.6028595 -0.095825195 1.057312 -0.28753662 1.3633728c-0.18859863 0.30607605 -0.47766113 0.45910645 -0.86724854 0.45910645c-0.38952637 0 -0.66156006 -0.12057495 -0.8161621 -0.3617096c-0.15148926 -0.2411499 -0.22723389 -0.7837219 -0.22723389 -1.6277161l0 -2.7406769l-5.4398193 0l0 1.4746857c0 1.6879883 0.17156982 2.9910889 0.5147705 3.9092865c0.34313965 0.9181824 1.0681763 1.6740723 2.1749878 2.2676544c1.1099243 0.59358215 2.4486084 0.89038086 4.0160522 0.89038086c1.4284058 0 2.680542 -0.25660706 3.7564087 -0.7698059c1.0759277 -0.5162964 1.8009033 -1.1546936 2.1749878 -1.9152222c0.37719727 -0.76052856 0.5657959 -1.9430542 0.5657959 -3.547577c0 -2.2073822 -0.338562 -3.8072662 -1.015625 -4.799652c-0.677063 -0.99238586 -2.3187256 -2.263031 -4.925049 -3.811905c-0.90893555 -0.53793335 -1.4608154 -0.99702454 -1.6555786 -1.3772888c-0.20404053 -0.38026428 -0.3060913 -0.9460144 -0.3060913 -1.6972656c0 -0.5843048 0.089660645 -1.0202179 0.26898193 -1.3077393c0.18243408 -0.2875061 0.4498291 -0.4312744 0.8023071 -0.4312744c0.324646 0 0.55651855 0.106658936 0.6956177 0.3199768c0.13909912 0.21331787 0.2086792 0.70951843 0.2086792 1.4886017l0 1.6694336l5.4398193 0l0 -0.8903656c0 -1.7900238 -0.17468262 -3.0575562 -0.52404785 -3.8026276c-0.34625244 -0.7481537 -1.0557861 -1.3680115 -2.128601 -1.8595734c-1.0697021 -0.4915619 -2.3651733 -0.7373352 -3.8862305 -0.7373352z" fill-rule="evenodd"/><path fill="#ff0000" d="m795.6879 215.65804l0 4.5075073l3.4641724 0l0 18.016083l5.857239 0l0 -18.016083l3.4780884 0l0 -4.5075073z" fill-rule="evenodd"/><path fill="#ff0000" d="m809.82306 215.65804l0 22.52359l10.156189 0l0 -4.507492l-4.299011 0l0 -4.9526978l3.6589966 0l0 -4.284897l-3.6589966 0l0 -4.270996l3.9094238 0l0 -4.5075073z" fill-rule="evenodd"/><path fill="#ff0000" d="m821.66266 215.65804l0 22.52359l5.119812 0l0 -14.858063l2.156433 14.858063l3.6311646 0l2.045166 -15.205856l0 15.205856l5.119812 0l0 -22.52359l-7.6380005 0l-1.3355713 10.517502l-0.8069458 -5.7317657c-0.25042725 -1.83638 -0.48693848 -3.4316254 -0.7095337 -4.785736z" fill-rule="evenodd"/></g></svg>